<?xml version="1.0" encoding="UTF-8" standalone="no"?>
<!-- Created with Inkscape (http://www.inkscape.org/) -->

<svg
   width="1024"
   height="768"
   id="svg2619"
   sodipodi:version="0.32"
   inkscape:version="1.2.2 (b0a8486541, 2022-12-01)"
   sodipodi:docname="deniosmenu.svg"
   inkscape:output_extension="org.inkscape.output.svg.inkscape"
   inkscape:export-filename="/home/carlos/Desktop/logo-grey-bg.png"
   inkscape:export-xdpi="90"
   inkscape:export-ydpi="90"
   version="1.0"
   sodipodi:modified="true"
   xmlns:inkscape="http://www.inkscape.org/namespaces/inkscape"
   xmlns:sodipodi="http://sodipodi.sourceforge.net/DTD/sodipodi-0.dtd"
   xmlns:xlink="http://www.w3.org/1999/xlink"
   xmlns="http://www.w3.org/2000/svg"
   xmlns:svg="http://www.w3.org/2000/svg"
   xmlns:rdf="http://www.w3.org/1999/02/22-rdf-syntax-ns#"
   xmlns:cc="http://creativecommons.org/ns#"
   xmlns:dc="http://purl.org/dc/elements/1.1/">
  <defs
     id="defs2621">
    <inkscape:perspective
       sodipodi:type="inkscape:persp3d"
       inkscape:vp_x="0 : 384 : 1"
       inkscape:vp_y="0 : 1000 : 0"
       inkscape:vp_z="1024 : 384 : 1"
       inkscape:persp3d-origin="512 : 256 : 1"
       id="perspective277" />
    <linearGradient
       inkscape:collect="always"
       xlink:href="#linearGradient3312"
       id="linearGradient3538"
       gradientUnits="userSpaceOnUse"
       gradientTransform="matrix(1.091261,0,0,1.091261,79.238251,-55.750939)"
       x1="61.42857"
       y1="362.14285"
       x2="116.42857"
       y2="408.57144" />
    <pattern
       inkscape:collect="always"
       xlink:href="#pattern4481"
       id="pattern4486"
       patternTransform="matrix(0.4295427,0,0,0.4295427,-4.3554687e-6,-4.3457032e-7)" />
    <pattern
       inkscape:collect="always"
       xlink:href="#pattern4467"
       id="pattern4481"
       patternTransform="matrix(0.4295427,0,0,0.4295427,-130.66779,-129.37468)" />
    <linearGradient
       id="linearGradient3588">
      <stop
         style="stop-color:#bfe699;stop-opacity:1;"
         offset="0"
         id="stop3590" />
      <stop
         style="stop-color:#313e24;stop-opacity:1;"
         offset="1"
         id="stop3592" />
    </linearGradient>
    <linearGradient
       id="linearGradient3570">
      <stop
         id="stop3572"
         offset="0"
         style="stop-color:#e5ffcb;stop-opacity:1;" />
      <stop
         id="stop3574"
         offset="1"
         style="stop-color:#bfff80;stop-opacity:1;" />
    </linearGradient>
    <linearGradient
       id="linearGradient3303">
      <stop
         style="stop-color:#bfff80;stop-opacity:1;"
         offset="0"
         id="stop3305" />
      <stop
         style="stop-color:#6a8b4a;stop-opacity:1;"
         offset="1"
         id="stop3307" />
    </linearGradient>
    <linearGradient
       id="linearGradient3431">
      <stop
         id="stop3433"
         offset="0"
         style="stop-color:#3d3d3d;stop-opacity:1;" />
      <stop
         id="stop3435"
         offset="1"
         style="stop-color:#000000;stop-opacity:0.11400651;" />
    </linearGradient>
    <linearGradient
       id="linearGradient3349">
      <stop
         style="stop-color:#d3d3d3;stop-opacity:1;"
         offset="0"
         id="stop3351" />
      <stop
         style="stop-color:#ffffff;stop-opacity:1;"
         offset="1"
         id="stop3353" />
    </linearGradient>
    <linearGradient
       id="linearGradient3312">
      <stop
         style="stop-color:#c7f994;stop-opacity:1;"
         offset="0"
         id="stop3314" />
      <stop
         style="stop-color:#87cf3e;stop-opacity:1;"
         offset="1"
         id="stop3316" />
    </linearGradient>
    <linearGradient
       inkscape:collect="always"
       xlink:href="#linearGradient3312"
       id="linearGradient3335"
       gradientUnits="userSpaceOnUse"
       x1="61.42857"
       y1="362.14285"
       x2="116.42857"
       y2="408.57144" />
    <linearGradient
       inkscape:collect="always"
       xlink:href="#linearGradient3349"
       id="linearGradient3374"
       gradientUnits="userSpaceOnUse"
       x1="140.66374"
       y1="424.33243"
       x2="67.175148"
       y2="348.57098" />
    <linearGradient
       inkscape:collect="always"
       xlink:href="#linearGradient3312"
       id="linearGradient3377"
       gradientUnits="userSpaceOnUse"
       x1="61.42857"
       y1="362.14285"
       x2="116.42857"
       y2="408.57144"
       gradientTransform="translate(0,-9.49911)" />
    <linearGradient
       inkscape:collect="always"
       xlink:href="#linearGradient3312"
       id="linearGradient3398"
       gradientUnits="userSpaceOnUse"
       gradientTransform="translate(0,-9.49911)"
       x1="61.42857"
       y1="362.14285"
       x2="116.42857"
       y2="408.57144" />
    <linearGradient
       inkscape:collect="always"
       xlink:href="#linearGradient3349"
       id="linearGradient3400"
       gradientUnits="userSpaceOnUse"
       x1="140.66374"
       y1="424.33243"
       x2="67.175148"
       y2="348.57098" />
    <linearGradient
       inkscape:collect="always"
       xlink:href="#linearGradient3312"
       id="linearGradient3416"
       gradientUnits="userSpaceOnUse"
       gradientTransform="matrix(1,0,0,-1,0,649.49911)"
       x1="61.42857"
       y1="362.14285"
       x2="116.42857"
       y2="408.57144" />
    <linearGradient
       inkscape:collect="always"
       xlink:href="#linearGradient3349"
       id="linearGradient2254"
       gradientUnits="userSpaceOnUse"
       x1="140.66374"
       y1="424.33243"
       x2="67.175148"
       y2="348.57098" />
    <linearGradient
       inkscape:collect="always"
       xlink:href="#linearGradient3431"
       id="linearGradient2259"
       gradientUnits="userSpaceOnUse"
       spreadMethod="pad"
       x1="70.491508"
       y1="416.38858"
       x2="113.64215"
       y2="375.87961" />
    <linearGradient
       inkscape:collect="always"
       xlink:href="#linearGradient3312"
       id="linearGradient2262"
       gradientUnits="userSpaceOnUse"
       gradientTransform="translate(0,-9.49911)"
       x1="61.42857"
       y1="362.14285"
       x2="116.42857"
       y2="408.57144" />
    <linearGradient
       inkscape:collect="always"
       xlink:href="#linearGradient3312"
       id="linearGradient3311"
       gradientUnits="userSpaceOnUse"
       gradientTransform="translate(0,-9.49911)"
       x1="61.42857"
       y1="362.14285"
       x2="116.42857"
       y2="408.57144" />
    <linearGradient
       inkscape:collect="always"
       xlink:href="#linearGradient3431"
       id="linearGradient3313"
       gradientUnits="userSpaceOnUse"
       spreadMethod="pad"
       x1="70.491508"
       y1="416.38858"
       x2="113.64215"
       y2="375.87961" />
    <linearGradient
       inkscape:collect="always"
       xlink:href="#linearGradient3349"
       id="linearGradient3315"
       gradientUnits="userSpaceOnUse"
       x1="140.66374"
       y1="424.33243"
       x2="67.175148"
       y2="348.57098" />
    <linearGradient
       inkscape:collect="always"
       xlink:href="#linearGradient3349"
       id="linearGradient3318"
       gradientUnits="userSpaceOnUse"
       x1="140.66374"
       y1="424.33243"
       x2="67.175148"
       y2="348.57098" />
    <linearGradient
       inkscape:collect="always"
       xlink:href="#linearGradient3588"
       id="linearGradient3737"
       gradientUnits="userSpaceOnUse"
       x1="26.795013"
       y1="216.34912"
       x2="149.90654"
       y2="323.98651" />
    <pattern
       patternUnits="userSpaceOnUse"
       width="256"
       height="256"
       patternTransform="translate(-297.8418,85.357452)"
       id="pattern4467">
      <image
         xlink:href="metal5.jpg"
         width="256"
         height="256"
         id="image4464"
         x="0"
         y="0" />
    </pattern>
    <pattern
       patternUnits="userSpaceOnUse"
       width="109.96293"
       height="109.96293"
       patternTransform="translate(-130.66779,-129.37468)"
       id="pattern4483">
      <rect
         id="rect4470"
         y="0"
         x="0"
         height="109.96293"
         width="109.96293"
         style="fill:url(#pattern4486);stroke:none" />
    </pattern>
    <linearGradient
       inkscape:collect="always"
       xlink:href="#linearGradient3431"
       id="linearGradient2994"
       gradientUnits="userSpaceOnUse"
       gradientTransform="translate(0,80)"
       spreadMethod="pad"
       x1="70.491508"
       y1="416.38858"
       x2="113.64215"
       y2="375.87961" />
    <linearGradient
       inkscape:collect="always"
       xlink:href="#linearGradient3349"
       id="linearGradient3000"
       gradientUnits="userSpaceOnUse"
       gradientTransform="matrix(1.0484996,0,0,1.0484996,59.525242,85.095989)"
       x1="148.5945"
       y1="426.11398"
       x2="100.47015"
       y2="379.95963" />
    <linearGradient
       inkscape:collect="always"
       xlink:href="#linearGradient3312"
       id="linearGradient3006"
       gradientUnits="userSpaceOnUse"
       gradientTransform="matrix(1.0484996,0,0,1.0484996,59.525242,75.136176)"
       x1="61.42857"
       y1="362.14285"
       x2="116.42857"
       y2="408.57144" />
    <linearGradient
       inkscape:collect="always"
       xlink:href="#linearGradient3312"
       id="linearGradient4003"
       gradientUnits="userSpaceOnUse"
       gradientTransform="matrix(1.0484996,0,0,1.0484996,210.01137,213.49817)"
       x1="61.42857"
       y1="362.14285"
       x2="116.42857"
       y2="408.57144" />
    <linearGradient
       inkscape:collect="always"
       xlink:href="#linearGradient3431"
       id="linearGradient4005"
       gradientUnits="userSpaceOnUse"
       gradientTransform="translate(0,80)"
       spreadMethod="pad"
       x1="70.491508"
       y1="416.38858"
       x2="113.64215"
       y2="375.87961" />
    <linearGradient
       inkscape:collect="always"
       xlink:href="#linearGradient3349"
       id="linearGradient4007"
       gradientUnits="userSpaceOnUse"
       gradientTransform="matrix(1.0484996,0,0,1.0484996,210.01137,223.45798)"
       x1="148.5945"
       y1="426.11398"
       x2="100.47015"
       y2="379.95963" />
    <linearGradient
       inkscape:collect="always"
       xlink:href="#linearGradient3312"
       id="linearGradient2992"
       gradientUnits="userSpaceOnUse"
       gradientTransform="matrix(1.0417465,0,0,1.0417465,81.266854,19.855591)"
       x1="47.555698"
       y1="131.83339"
       x2="141.37427"
       y2="207.52625" />
    <linearGradient
       inkscape:collect="always"
       xlink:href="#linearGradient3431"
       id="linearGradient2995"
       gradientUnits="userSpaceOnUse"
       gradientTransform="translate(-11.825686,-215.33459)"
       spreadMethod="pad"
       x1="70.491508"
       y1="416.38858"
       x2="113.64215"
       y2="375.87961" />
    <linearGradient
       inkscape:collect="always"
       xlink:href="#linearGradient3349"
       id="linearGradient2997"
       gradientUnits="userSpaceOnUse"
       gradientTransform="matrix(1.0417465,0,0,1.0417465,81.266854,19.855591)"
       x1="93.412979"
       y1="209.62093"
       x2="95.111397"
       y2="116.20795" />
    <linearGradient
       inkscape:collect="always"
       xlink:href="#linearGradient3431"
       id="linearGradient2999"
       gradientUnits="userSpaceOnUse"
       gradientTransform="translate(0,80)"
       spreadMethod="pad"
       x1="70.491508"
       y1="416.38858"
       x2="113.64215"
       y2="375.87961" />
    <linearGradient
       inkscape:collect="always"
       xlink:href="#linearGradient3312"
       id="linearGradient3001"
       gradientUnits="userSpaceOnUse"
       gradientTransform="matrix(1.091261,0,0,1.091261,67.062859,-117.80387)"
       x1="61.42857"
       y1="362.14285"
       x2="116.42857"
       y2="408.57144" />
    <linearGradient
       inkscape:collect="always"
       xlink:href="#linearGradient3431"
       id="linearGradient3003"
       gradientUnits="userSpaceOnUse"
       gradientTransform="translate(0,80)"
       spreadMethod="pad"
       x1="70.491508"
       y1="416.38858"
       x2="113.64215"
       y2="375.87961" />
    <linearGradient
       inkscape:collect="always"
       xlink:href="#linearGradient3312"
       id="linearGradient3005"
       gradientUnits="userSpaceOnUse"
       gradientTransform="matrix(1.0417465,0,0,1.0417465,81.266854,19.855591)"
       x1="47.555698"
       y1="131.83339"
       x2="141.37427"
       y2="207.52625" />
    <linearGradient
       inkscape:collect="always"
       xlink:href="#linearGradient3431"
       id="linearGradient3007"
       gradientUnits="userSpaceOnUse"
       gradientTransform="translate(-11.825686,-215.33459)"
       spreadMethod="pad"
       x1="70.491508"
       y1="416.38858"
       x2="113.64215"
       y2="375.87961" />
    <linearGradient
       inkscape:collect="always"
       xlink:href="#linearGradient3349"
       id="linearGradient3009"
       gradientUnits="userSpaceOnUse"
       gradientTransform="matrix(1.0417465,0,0,1.0417465,81.266854,19.855591)"
       x1="93.412979"
       y1="209.62093"
       x2="95.111397"
       y2="116.20795" />
  </defs>
  <sodipodi:namedview
     id="base"
     pagecolor="#333333"
     bordercolor="#666666"
     borderopacity="1.0"
     gridtolerance="10000"
     guidetolerance="10"
     objecttolerance="10"
     inkscape:pageopacity="1"
     inkscape:pageshadow="2"
     inkscape:zoom="0.5086397"
     inkscape:cx="344.05494"
     inkscape:cy="419.74702"
     inkscape:document-units="px"
     inkscape:current-layer="g2650"
     inkscape:window-width="1366"
     inkscape:window-height="710"
     inkscape:window-x="0"
     inkscape:window-y="0"
     width="1024px"
     height="768px"
     showguides="true"
     inkscape:guide-bbox="true"
     showgrid="false"
     inkscape:showpageshadow="2"
     inkscape:pagecheckerboard="0"
     inkscape:deskcolor="#333333"
     inkscape:window-maximized="0" />
  <metadata
     id="metadata2624">
    <rdf:RDF>
      <cc:Work
         rdf:about="">
        <dc:format>image/svg+xml</dc:format>
        <dc:type
           rdf:resource="http://purl.org/dc/dcmitype/StillImage" />
      </cc:Work>
    </rdf:RDF>
  </metadata>
  <g
     inkscape:label="Layer 1"
     inkscape:groupmode="layer"
     id="layer1">
    <g
       id="g2650"
       transform="matrix(6.5972926,0,0,6.5972926,-735.85177,-2072.0441)">
      <g
         id="layer1-36-2"
         transform="matrix(0.85170753,0,0,0.63380786,99.268529,301.6156)">
        <path
           style="fill:#000000;fill-opacity:1;stroke:#000000;stroke-width:0.264583px;stroke-linecap:butt;stroke-linejoin:miter;stroke-opacity:1"
           d="m 62.903711,58.218316 -0.746246,23.879864 10.074319,-13.805547 13.805543,10.820563 12.313058,24.999224 16.790525,5.22373 1.11937,70.1471 8.2087,-35.8198 10.07432,19.77551 0.74625,-42.536 20.14863,11.93993 L 110.29031,66.80014 77.828626,54.860208 Z"
           id="path8217-0" />
        <ellipse
           style="display:inline;mix-blend-mode:normal;fill:#004aa3;fill-opacity:1;stroke:#000000;stroke-width:0.749493;stroke-miterlimit:4;stroke-dasharray:none;stroke-opacity:1;enable-background:new"
           id="path4518-2"
           cx="105.0291"
           cy="112.0466"
           rx="89.947693"
           ry="89.931297" />
        <path
           style="display:inline;mix-blend-mode:normal;fill:#004aa3;fill-opacity:1;stroke:#000000;stroke-width:0.749493;stroke-miterlimit:4;stroke-dasharray:none;stroke-opacity:0.973303;enable-background:new"
           d="m 105.02908,22.115377 a 89.9477,89.931302 0 0 0 -89.947697,89.931323 89.9477,89.931302 0 0 0 0.01588,0.43952 89.9477,89.931302 0 0 1 89.932317,-89.62096 89.9477,89.931302 0 0 1 89.93234,89.49216 89.9477,89.931302 0 0 0 0.0158,-0.3106 89.9477,89.931302 0 0 0 -89.94755,-89.931319 z"
           id="circle4528-3" />
        <path
           id="path0-7"
           d="m 98.806254,31.091248 c -0.09893,0.1105 -0.873225,0.236947 -1.720826,0.287282 -0.8471,0.0491 -1.688116,0.164514 -1.868605,0.25168 -0.180437,0.08594 -0.623328,0.181701 -0.983823,0.20871 -0.88384,0.06139 -1.030336,-0.157141 2.815702,4.307033 3.612418,4.192978 3.866778,4.381431 3.531028,2.618079 -0.10863,-0.568427 -0.19863,-1.547521 -0.20084,-2.176965 -0.002,-0.629812 -0.0841,-1.504429 -0.18177,-1.944561 -0.0977,-0.439518 -0.225103,-1.439115 -0.283094,-2.221531 -0.108622,-1.467967 -0.522001,-1.965186 -1.107731,-1.330342 m 2.600265,-0.06139 c -0.15224,0.06139 -0.11964,0.222215 0.12304,0.591753 0.18105,0.275005 0.32912,0.563517 0.32912,0.639634 0,0.07367 0.13476,0.303242 0.29946,0.505815 0.39858,0.488626 2.50693,4.112809 2.84976,4.899031 0.14954,0.341303 0.40872,0.941649 0.57645,1.332796 0.16774,0.390411 0.51846,1.070558 0.77947,1.510569 1.3656,2.298875 3.53984,6.332622 4.21537,7.81974 2.00969,4.423541 2.26715,5.06109 2.26715,5.613434 0,0.321657 0.0647,0.628583 0.14296,0.681376 0.0782,0.0491 0.18716,0.337618 0.24197,0.632266 0.0732,0.402689 0.18935,0.536508 0.45924,0.536508 0.19778,0 0.47649,0.110499 0.61894,0.245541 0.14246,0.135055 1.09881,0.457933 2.1256,0.715752 1.02679,0.259044 2.07163,0.627356 2.32157,0.820107 0.24989,0.192748 0.53261,0.351123 0.6282,0.351123 0.30043,0 1.58547,0.84466 2.83473,1.862918 0.6618,0.538962 1.25235,0.980936 1.31296,0.980936 0.094,0 1.43504,2.029272 2.05969,3.117142 0.10986,0.191522 0.64273,1.101251 1.1833,2.019696 1.16791,1.985321 1.15815,2.040446 -0.27283,1.528369 -4.63873,-1.659242 -7.56282,-1.737324 -10.30332,-0.275006 -1.31517,0.70102 -1.53061,1.104934 -1.4262,2.674065 0.0427,0.634722 0.14295,1.231142 0.22289,1.323709 0.0806,0.09823 0.14636,0.71821 0.14636,1.389272 0,0.671553 0.083,1.388902 0.18531,1.595032 0.17348,0.352352 0.37076,1.911415 0.57645,4.562151 0.0853,1.102479 0.45523,1.984216 1.21614,2.901311 0.14063,0.169425 0.57779,0.8508 0.971,1.513515 1.78456,3.006402 2.57419,3.041883 9.02267,0.403915 0.76664,-0.313066 1.83673,-0.729258 2.37773,-0.923235 0.54154,-0.193977 1.13166,-0.421101 1.31209,-0.50213 0.18043,-0.08594 0.84452,-0.348669 1.47574,-0.592982 0.63175,-0.243086 1.70183,-0.656822 2.3782,-0.917095 0.67644,-0.260273 2.00484,-0.78082 2.95198,-1.156498 0.94708,-0.374451 2.45959,-0.973569 3.36158,-1.329482 0.90202,-0.356032 2.00925,-0.794325 2.46005,-0.973568 0.45071,-0.179246 1.48414,-0.579477 2.29591,-0.888857 0.81168,-0.309383 1.6235,-0.631042 1.80398,-0.714527 0.18045,-0.08594 0.86309,-0.358489 1.5169,-0.610169 0.65384,-0.251679 1.72393,-0.665415 2.37774,-0.917094 0.65385,-0.25168 1.33686,-0.529141 1.51691,-0.613852 0.18045,-0.08594 0.95551,-0.39041 1.72215,-0.677694 1.50009,-0.562288 2.72148,-1.052142 4.50956,-1.807303 0.18045,-0.07366 0.54936,-0.21976 0.82012,-0.319203 1.99246,-0.731713 5.92957,-2.3141 6.763,-2.71777 0.38223,-0.185383 0.74005,-0.336392 0.79534,-0.336392 0.055,0 0.33217,-0.110497 0.61661,-0.249222 0.28408,-0.137506 0.86614,-0.387956 1.29352,-0.556151 1.28154,-0.505815 1.30366,-0.672783 0.23621,-1.793922 -0.51224,-0.537735 -0.93121,-1.039865 -0.93121,-1.115983 0,-0.07366 -0.18434,-0.371994 -0.40956,-0.655595 -0.22561,-0.284826 -0.41006,-0.584387 -0.41006,-0.666642 0,-0.08594 -0.44277,-0.67401 -0.98431,-1.314012 -0.54105,-0.639635 -0.98383,-1.272395 -0.98383,-1.404741 0,-0.132586 -0.11232,-0.24063 -0.25124,-0.24063 -0.13805,0 -0.30738,-0.163287 -0.37599,-0.364628 -0.0684,-0.201342 -0.30569,-0.462845 -0.52725,-0.583159 -0.22207,-0.122777 -0.4932,-0.414964 -0.60294,-0.656823 -0.31411,-0.691197 -4.32023,-4.846363 -5.04838,-5.235177 -0.36048,-0.192749 -1.15899,-0.871671 -1.77346,-1.509217 -0.61489,-0.637179 -1.21785,-1.199466 -1.33995,-1.247962 -0.12257,-0.0491 -0.69804,-0.579477 -1.27979,-1.179823 -0.58121,-0.600348 -1.34349,-1.232984 -1.69384,-1.406581 -0.34986,-0.173107 -0.79986,-0.472666 -0.99933,-0.666645 -0.19946,-0.192748 -0.50381,-0.439518 -0.67642,-0.547555 -0.1725,-0.110499 -0.72991,-0.49722 -1.2391,-0.864305 -0.50918,-0.367083 -0.98565,-0.666643 -1.05817,-0.666643 -0.0719,0 -0.30569,-0.200115 -0.5176,-0.444428 -0.21146,-0.244314 -0.47208,-0.444429 -0.57817,-0.444429 -0.1062,0 -0.40969,-0.219759 -0.67508,-0.488627 -0.55911,-0.567201 -2.13933,-1.472754 -2.56267,-1.468949 -0.15958,0.0015 -0.58256,-0.196432 -0.93964,-0.441974 -0.35744,-0.244313 -0.78605,-0.444428 -0.95293,-0.444428 -0.16712,0 -0.66666,-0.198888 -1.11029,-0.443201 -0.44377,-0.244313 -0.89667,-0.444429 -1.0069,-0.444429 -0.10986,-3.69e-4 -0.46267,-0.160836 -0.78386,-0.356036 -0.3212,-0.195204 -0.69231,-0.354806 -0.825,-0.354806 -0.13232,0 -0.24109,-0.08594 -0.24109,-0.178015 0,-0.09823 -0.12917,-0.178019 -0.28665,-0.179246 -0.15797,-3.68e-4 -0.49856,-0.122777 -0.75689,-0.266412 -0.25829,-0.146089 -0.57204,-0.265185 -0.69717,-0.265185 -0.12477,0 -0.22694,-0.07366 -0.22694,-0.17679 0,-0.09823 -0.28615,-0.178016 -0.63614,-0.178016 -0.36489,0 -0.72282,-0.110498 -0.84002,-0.266413 -0.11231,-0.146089 -0.33791,-0.266411 -0.50211,-0.266411 -0.16407,0 -0.34413,-0.08594 -0.39992,-0.178017 -0.0561,-0.09823 -0.277,-0.178017 -0.49197,-0.178017 -0.21448,0 -0.43619,-0.07366 -0.49197,-0.176789 -0.0562,-0.09823 -0.2703,-0.178017 -0.47646,-0.178017 -0.40568,0 -1.34393,-0.451796 -1.4979,-0.72189 -0.0525,-0.08594 -0.3074,-0.166968 -0.56754,-0.166968 -0.26015,0 -0.51797,-0.07366 -0.57376,-0.17679 -0.0561,-0.09823 -0.28274,-0.178018 -0.50381,-0.178018 -0.22157,0 -0.53092,-0.07366 -0.68742,-0.169423 -0.15662,-0.09823 -0.58,-0.299559 -0.94098,-0.459162 -0.3605,-0.15961 -0.78385,-0.3634 -0.94048,-0.453023 -0.15661,-0.08594 -0.61356,-0.163288 -1.01521,-0.163288 -0.40211,0 -0.7764,-0.08594 -0.83207,-0.178017 -0.0561,-0.09823 -0.38307,-0.176787 -0.72721,-0.176787 -0.35696,0 -0.71441,-0.110499 -0.83074,-0.266414 -0.12964,-0.169422 -0.49197,-0.266412 -0.99396,-0.266412 -0.43483,0 -0.8361,-0.07366 -0.89176,-0.178017 -0.0562,-0.09823 -0.42471,-0.178018 -0.81975,-0.178018 -0.39553,0 -0.76446,-0.08594 -0.82024,-0.178015 -0.0562,-0.09823 -0.34634,-0.17679 -0.64543,-0.17679 -0.29946,0 -0.63615,-0.122776 -0.74846,-0.267639 -0.14199,-0.185385 -0.51932,-0.266414 -1.2404,-0.266414 -0.56973,0 -1.0816,-0.07366 -1.13739,-0.176788 -0.0561,-0.09823 -0.31411,-0.178017 -0.57426,-0.178017 -0.25966,0 -0.51796,-0.08594 -0.57376,-0.178017 -0.0561,-0.09823 -0.34145,-0.17679 -0.63432,-0.17679 -0.29323,0 -0.67643,-0.122776 -0.85161,-0.2615 -0.31361,-0.257819 -12.09537,-0.400233 -12.65983,-0.153463 m -10.610324,1.291054 c -0.05127,0.08594 -0.499904,0.220987 -0.995783,0.287284 -0.495879,0.06139 -0.941827,0.192749 -0.990905,0.278689 -0.05004,0.08594 -0.41323,0.157141 -0.808274,0.157141 -0.395529,0 -0.764446,0.08594 -0.820117,0.178018 -0.05615,0.09823 -0.530911,0.178017 -1.055481,0.178017 -0.630406,0 -1.020565,0.08594 -1.150212,0.256588 -0.107438,0.141185 -0.343769,0.281146 -0.524201,0.31061 -0.33669,0.06139 2.464901,2.806902 4.310482,4.231775 0.443263,0.341302 1.907946,1.559061 3.255413,2.703897 2.571524,2.18605 2.735194,2.263272 2.366715,1.115983 -0.12513,-0.390409 -0.22914,-1.021451 -0.230477,-1.400811 -0.0013,-0.379361 -0.07447,-0.979709 -0.16138,-1.332674 -0.34731,-1.403265 -1.193918,-5.130208 -1.332427,-5.866586 -0.21326,-1.130716 -1.434177,-1.850517 -1.863281,-1.097567 m -8.206899,2.145413 c -0.05615,0.09823 -0.276979,0.178017 -0.491971,0.178017 -0.214986,0 -0.429588,0.07366 -0.477322,0.152236 -0.04761,0.08594 -0.512237,0.200116 -1.03204,0.257818 -0.519807,0.06139 -0.971007,0.190295 -1.00238,0.292194 -0.03173,0.09823 -0.194591,0.186611 -0.361837,0.186611 -0.167732,0 -0.350361,0.08594 -0.40615,0.178017 -0.05615,0.09823 -0.314107,0.176789 -0.574253,0.176789 -0.259651,0 -0.517977,0.08594 -0.573765,0.178018 -0.05615,0.09823 -0.266726,0.178017 -0.468899,0.178017 -0.20217,0 -0.453885,0.09823 -0.559116,0.207482 -0.245495,0.266412 -1.324894,0.675237 -1.791154,0.67892 -0.197768,0.0015 -0.404811,0.08594 -0.460477,0.180474 -0.05615,0.09823 -0.235855,0.178015 -0.399926,0.178015 -0.164083,0 -0.39016,0.122777 -0.502105,0.266413 -0.112314,0.146089 -0.416649,0.266412 -0.676431,0.266412 -0.259288,0 -0.471585,0.07366 -0.471585,0.155913 0,0.08594 -0.240257,0.256593 -0.53311,0.379362 -0.967953,0.405144 -3.234637,1.623271 -3.329322,1.789625 -0.05127,0.08594 -0.305683,0.163288 -0.565828,0.163288 -0.25965,0 -0.517976,0.08594 -0.573764,0.178017 -0.05615,0.09823 -0.263189,0.178018 -0.460477,0.179245 -0.197767,0.0011 -0.728558,0.358489 -1.179388,0.794326 -0.451199,0.435834 -0.901055,0.795552 -0.999816,0.798008 -0.09888,0.0023 -0.3163,0.168195 -0.483061,0.368311 -0.167369,0.200115 -0.566195,0.494763 -0.886523,0.655594 -0.320332,0.160836 -0.810841,0.477577 -1.090031,0.702246 -0.279193,0.225898 -0.57999,0.410053 -0.668376,0.410053 -0.08791,0 -0.334367,0.200117 -0.546295,0.444429 -0.211446,0.244314 -0.471585,0.444431 -0.576816,0.444431 -0.106211,0 -0.32558,0.159609 -0.488799,0.354805 -0.163218,0.195206 -0.364033,0.356036 -0.446314,0.356036 -0.0818,0 -0.391502,0.200115 -0.687049,0.444428 -0.295917,0.244314 -0.598059,0.444428 -0.672406,0.444428 -0.07325,0 -0.599888,0.460391 -1.168277,1.02145 -1.47929,1.462689 -2.378193,2.269536 -2.841805,2.552399 -0.222064,0.13628 -0.664834,0.505814 -0.983823,0.822561 -0.318988,0.316749 -0.658731,0.577022 -0.754193,0.578249 -0.09643,0.0011 -0.391016,0.247996 -0.656046,0.548785 -0.264916,0.300788 -0.795331,0.703474 -1.1789,0.89254 -0.750288,0.371996 -6.928443,6.908784 -6.928443,7.330624 0,0.127681 -0.189715,0.424786 -0.422022,0.660505 -0.231815,0.235719 -0.577794,0.730486 -0.767991,1.097569 -0.19069,0.367081 -0.406515,0.66787 -0.480373,0.66787 -0.07325,0 -0.133683,0.122776 -0.133683,0.262729 0,0.144864 -0.184589,0.394093 -0.410058,0.553694 -0.225601,0.15961 -0.410058,0.395321 -0.410058,0.52423 0,0.128906 -0.18459,0.390411 -0.409693,0.583161 -0.64237,0.547556 -0.499907,0.791868 0.779465,1.340407 0.653358,0.279916 1.557147,0.688742 2.008368,0.907273 0.45071,0.218533 2.406501,1.055826 4.34586,1.859728 1.93893,0.804145 3.67348,1.525423 3.853519,1.604119 0.180436,0.07366 0.660075,0.281142 1.066102,0.451793 0.406153,0.169424 0.885674,0.373224 1.066103,0.453024 0.179935,0.07366 1.730106,0.713295 3.443841,1.41186 1.713772,0.698565 3.558459,1.456549 4.09948,1.685638 0.541414,0.229581 1.906632,0.790642 3.034237,1.246489 1.127141,0.456707 2.197283,0.896224 2.377773,0.977253 0.180437,0.08594 1.73012,0.721891 3.443853,1.423401 1.71376,0.702246 3.558448,1.463178 4.099922,1.69239 0.541047,0.228352 1.86947,0.772226 2.951943,1.208062 1.082093,0.435835 3.332846,1.352806 5.001487,2.03848 4.695766,1.927619 4.882033,1.992442 5.714112,1.992442 1.13825,0 2.065893,-0.698564 2.971439,-2.236511 0.39773,-0.676464 0.849415,-1.388902 1.003232,-1.584474 0.479153,-0.607714 1.954851,-3.965731 1.954851,-4.447974 0,-0.143636 0.07325,-0.261501 0.164081,-0.261501 0.09033,0 0.164082,-0.195206 0.164082,-0.43338 0,-0.238174 0.07325,-0.483716 0.163691,-0.543873 0.09033,-0.06139 0.164082,-0.255361 0.164082,-0.433379 0,-0.178017 0.111089,-0.422331 0.245997,-0.545101 0.135383,-0.122776 0.245997,-0.371995 0.245997,-0.557377 0,-0.185385 0.06469,-0.475121 0.145164,-0.644545 0.07935,-0.169423 0.237555,-0.548784 0.350729,-0.842206 0.113539,-0.29342 0.298601,-0.773453 0.411888,-1.065648 0.113539,-0.29342 0.291033,-0.736622 0.395897,-0.98339 0.31545,-0.747674 -0.05615,-2.686095 -0.735637,-3.8367 -0.312396,-0.52914 -0.568027,-1.004263 -0.568027,-1.054599 0,-0.0491 -0.430446,-0.8287 -0.956842,-1.72922 -0.876761,-1.500496 -1.287748,-2.277143 -2.701111,-5.103319 -0.269067,-0.537734 -0.568512,-1.086518 -0.665319,-1.220337 -0.193256,-0.266411 -0.185314,-0.164512 -0.339744,-4.200591 -0.10376,-2.701441 -0.186037,-3.317994 -0.671059,-4.976255 -0.113538,-0.390411 -0.303485,-1.070558 -0.420681,-1.510689 -0.253297,-0.9527 -1.111147,-2.998177 -3.875054,-9.241547 -1.492567,-3.371276 -2.277794,-4.385729 -2.751564,-3.55445 m -48.756611,41.7357 c -0.282243,0.358489 -0.51541,0.826246 -0.51846,1.041092 -0.0019,0.214849 -0.07935,0.438292 -0.168958,0.498448 -0.09033,0.06139 -0.164192,0.228353 -0.164192,0.374451 0,0.144862 -0.184589,0.480031 -0.40957,0.74276 -0.225601,0.263958 -0.410057,0.621219 -0.410057,0.794325 0,0.173106 -0.06715,0.454251 -0.149928,0.623674 -0.453881,0.935511 -0.997981,2.333744 -0.997981,2.564799 0,0.146089 -0.147699,0.410054 -0.328267,0.586842 -0.197154,0.193977 -0.327774,0.547557 -0.327774,0.888858 0,0.570883 -0.381739,1.593559 -0.666177,1.783977 -0.08422,0.06139 -0.154053,0.333935 -0.154053,0.61508 0,0.282372 -0.07325,0.562289 -0.163691,0.622446 -0.09033,0.06139 -0.164193,0.41251 -0.164193,0.78082 0,0.36954 -0.05249,0.728029 -0.117189,0.798009 -0.2212,0.239402 -0.702924,1.799324 -0.702924,2.276776 0,0.26273 -0.07326,0.527915 -0.164194,0.588072 -0.09033,0.06139 -0.164193,0.340073 -0.164193,0.621219 0,0.282372 -0.07447,0.562289 -0.164193,0.622446 -0.09033,0.06139 -0.163692,0.369538 -0.163692,0.687514 0,0.316748 -0.108634,0.73294 -0.241092,0.922005 -0.13845,0.198888 -0.242822,0.741536 -0.245997,1.278164 -0.0019,0.513181 -0.07935,0.933055 -0.16896,0.933055 -0.09033,0 -0.164193,0.423559 -0.164193,0.941651 0,0.51809 -0.06837,1.017766 -0.151738,1.111071 -0.083,0.09823 -0.186288,0.768544 -0.229141,1.501487 -0.04273,0.73416 -0.192028,2.13289 -0.332172,3.11051 -0.3008,2.09693 -0.388818,12.60755 -0.107438,12.79587 0.094,0.0614 0.164193,0.96007 0.164193,2.08649 0,1.08651 0.0696,2.22153 0.153077,2.52207 0.08422,0.30079 0.310074,1.78533 0.502102,3.30032 0.191526,1.51498 0.425074,2.99485 0.518951,3.28779 0.09279,0.29342 0.231817,0.81273 0.307024,1.15527 0.07571,0.34253 0.225102,0.94165 0.333152,1.33279 0.107437,0.39164 0.230004,1.16632 0.27113,1.72394 0.04152,0.56475 0.17751,1.10493 0.306536,1.22158 0.127944,0.1105 0.232177,0.39409 0.232177,0.61998 0,0.22713 0.07325,0.46162 0.16372,0.52178 0.09033,0.0614 0.164193,0.34007 0.164193,0.62244 0,0.28238 0.07447,0.56228 0.164194,0.62245 0.09033,0.0614 0.163718,0.34007 0.163718,0.62121 0,0.28239 0.06957,0.55861 0.154052,0.61509 0.274668,0.18415 0.665808,1.20314 0.67814,1.76716 0.0061,0.30201 0.153439,0.79063 0.326068,1.08406 0.17311,0.29342 0.357442,0.65313 0.410058,0.79923 0.05249,0.14732 0.164192,0.40515 0.247696,0.57579 0.08301,0.16943 0.15224,0.43093 0.15224,0.57948 0,0.14856 0.06837,0.41005 0.152241,0.58071 0.08301,0.16942 0.195093,0.42846 0.247697,0.57578 0.05248,0.14611 0.23708,0.50582 0.409568,0.79924 0.17311,0.29343 0.319845,0.67279 0.326437,0.84467 0.0061,0.17065 0.08546,0.31061 0.176034,0.31061 0.09033,0 0.163692,0.11049 0.163692,0.25167 0,0.13874 0.12343,0.51933 0.273832,0.84467 0.150512,0.32534 0.343769,0.74645 0.429104,0.93305 0.337542,0.74399 0.985651,1.97858 1.121399,2.13817 0.07935,0.0982 0.143799,0.27502 0.143799,0.40515 0,0.1289 0.230478,0.51072 0.51187,0.84466 0.57645,0.68628 0.963925,1.42095 0.963925,1.82645 0,0.14976 0.258312,0.61385 0.574129,1.03127 0.315448,0.41742 0.573762,0.82992 0.573762,0.91831 0,0.086 0.227441,0.39411 0.505158,0.68017 0.277843,0.28727 0.653359,0.87288 0.834278,1.30112 0.18091,0.42848 0.47024,0.9441 0.642736,1.14422 0.172496,0.20135 0.313616,0.46407 0.313616,0.58683 0,0.12279 0.147727,0.27134 0.328267,0.33394 0.180438,0.0614 0.327779,0.18662 0.327779,0.27747 0,0.086 0.246833,0.46529 0.548494,0.83115 0.301775,0.36709 0.615391,0.80047 0.696694,0.96375 0.0818,0.16332 0.536165,0.74398 1.009949,1.28958 0.473292,0.54511 0.86089,1.08528 0.86089,1.19824 0,0.29097 6.900132,7.76401 7.297822,7.90309 0.179936,0.0613 0.831225,0.64333 1.44612,1.28911 0.615391,0.64577 1.242623,1.22647 1.393927,1.28908 0.151628,0.0613 0.492338,0.36341 0.757368,0.66664 0.264916,0.30324 0.56009,0.55371 0.656045,0.55616 0.09521,0.002 0.459131,0.28236 0.807298,0.62244 0.348165,0.34007 0.699382,0.61754 0.780319,0.61754 0.08058,0 0.374654,0.21976 0.652014,0.48863 0.277845,0.26886 0.874563,0.71084 1.326689,0.98216 0.452053,0.27132 0.930354,0.6114 1.063417,0.75503 0.132708,0.1437 0.346822,0.26151 0.475979,0.26151 0.128667,0 0.234015,0.0737 0.234015,0.1571 0,0.086 0.243797,0.28237 0.541902,0.43583 0.297747,0.15352 0.678138,0.44199 0.845385,0.6421 0.166645,0.20011 0.439722,0.3634 0.605993,0.3634 0.166395,0 0.302628,0.086 0.302628,0.17801 0,0.0983 0.100105,0.17803 0.220726,0.17803 0.340231,0 1.168279,0.48985 1.500088,0.88763 0.164081,0.19642 0.43435,0.35726 0.600741,0.35726 0.166393,0 0.302632,0.086 0.302632,0.17679 0,0.0983 0.14296,0.17802 0.318012,0.17802 0.17517,0 0.359152,0.0737 0.409202,0.15956 0.08422,0.1473 3.109874,1.78926 4.028239,2.1852 0.225601,0.0983 0.618931,0.28973 0.874561,0.42724 0.255276,0.13748 0.568881,0.25045 0.696697,0.25045 0.127944,0 0.232679,0.086 0.232679,0.17802 0,0.0983 0.112314,0.17802 0.248198,0.17802 0.249899,0 0.385277,0.0613 1.335086,0.59666 0.284443,0.16087 0.667519,0.29219 0.851613,0.29219 0.183473,0 0.379538,0.086 0.435328,0.17803 0.340595,0.59789 2.049948,-0.64823 2.049948,-1.49389 0,-0.0614 0.157005,-0.29832 0.348531,-0.53773 0.19214,-0.2394 0.431787,-0.59299 0.533112,-0.78695 0.101337,-0.19397 1.142646,-1.89853 2.314051,-3.78736 1.171456,-1.88931 2.227351,-3.6335 2.346353,-3.8756 0.11964,-0.24186 0.272967,-0.48128 0.341938,-0.53283 0.06837,-0.0491 0.456936,-0.65313 0.862598,-1.3371 0.405667,-0.68383 0.843189,-1.36728 0.972349,-1.5178 0.12917,-0.15106 0.308366,-0.39901 0.398583,-0.55126 0.561801,-0.949 4.107866,-6.55261 4.322407,-6.83069 0.141987,-0.18416 0.913506,-1.4234 1.25326,-2.01209 0.09033,-0.15711 0.396385,-0.64453 0.680824,-1.08406 0.843556,-1.3064 0.809129,-1.37109 -2.17072,-4.07744 -0.719768,-0.65314 -4.073808,-3.80221 -4.16759,-3.91244 -0.04516,-0.0491 -0.451195,-0.4113 -0.902029,-0.7968 -0.451198,-0.38549 -1.19477,-1.06441 -1.653136,-1.51057 -1.144476,-1.11353 -2.495422,-2.36885 -4.30606,-3.99837 l -1.531059,-1.37823 0.09279,-0.91588 c 0.276507,-2.73065 0.425074,-3.90422 0.666663,-5.27065 0.147338,-0.83115 0.335715,-2.11029 0.41897,-2.84336 0.08301,-0.73295 0.197768,-1.58349 0.254412,-1.88932 0.141124,-0.76363 0.155277,-0.76116 -2.798464,-0.56843 -1.443005,0.0982 -2.947949,0.18539 -3.344322,0.20381 l -0.721114,0.0369 -1.216987,-1.86586 c -0.669354,-1.02637 -1.262965,-1.98287 -1.318718,-2.12528 -0.05615,-0.14241 -0.245134,-0.43707 -0.42019,-0.6556 -0.174697,-0.21853 -0.400782,-0.55983 -0.502107,-0.75872 -0.101337,-0.19888 -0.796674,-1.3328 -1.545658,-2.51839 -1.594318,-2.52502 -1.592535,-2.26192 -0.03174,-4.01938 3.987527,-4.48874 3.991517,-4.49635 2.284839,-4.49635 -0.636512,0 -1.466455,-0.086 -1.844687,-0.1817 -0.378197,-0.0982 -1.536356,-0.26273 -2.573721,-0.36095 -3.669488,-0.34866 -3.357167,-0.23694 -4.162742,-1.47323 -0.391992,-0.60158 -0.741378,-1.17247 -0.775923,-1.27093 -0.03419,-0.0982 -0.346336,-0.63103 -0.693157,-1.18596 -0.851979,-1.36435 -0.461819,-1.98667 2.27025,-3.62283 0.778974,-0.46653 2.200824,-1.42291 3.059906,-2.05813 0.510529,-0.37691 0.984309,-0.68628 1.052918,-0.68628 0.06957,0 0.241454,-0.1105 0.383932,-0.25168 0.258313,-0.25045 3.771217,-2.59219 3.889339,-2.59219 0.151266,0 1.466015,-1.11597 1.584589,-1.34567 0.166394,-0.32167 -3.054158,-0.33763 -12.536863,-0.0614 -8.373241,0.24308 -7.471689,0.49598 -9.077483,-2.5448 -0.09033,-0.17064 -0.863453,-1.570472 -1.718177,-3.110871 -0.854663,-1.539788 -1.636789,-2.959873 -1.737637,-3.155447 -0.101337,-0.195205 -0.637489,-1.140538 -1.192698,-2.098883 -0.555208,-0.958836 -1.009458,-1.792449 -1.009458,-1.851992 0,-0.06139 -0.100106,-0.234492 -0.221562,-0.389184 -0.122065,-0.154717 -0.398583,-0.640891 -0.614903,-1.080409 -0.216325,-0.439517 -0.430934,-0.83975 -0.476836,-0.888858 -0.135383,-0.144861 -0.982477,-1.584966 -0.982477,-1.671273 0,-0.0491 -0.700724,-1.286758 -1.557587,-2.762827 -0.856861,-1.476067 -1.558037,-2.761353 -1.558037,-2.856746 0,-0.09823 -0.07325,-0.173105 -0.164081,-0.173105 -0.09033,0 -0.164082,-0.08594 -0.164082,-0.190295 0,-0.37936 -2.120731,-3.642599 -2.667051,-4.104829 l -0.560336,-0.473896 -0.512724,0.651913 m 142.202543,0.429685 c -0.28579,0.34253 -0.94757,1.417631 -2.92762,4.754286 -0.20301,0.34253 -0.58,0.974798 -0.83746,1.405721 -0.25744,0.430926 -0.57901,0.971116 -0.71438,1.199467 -1.58813,2.686588 -2.22426,3.713071 -2.33176,3.762915 -0.0707,0.03684 -0.12781,0.132586 -0.12781,0.222214 0,0.137506 -3.2665,5.809008 -5.28771,9.180652 -0.33802,0.563517 -0.66262,1.144221 -0.72195,1.291176 -0.0599,0.146089 -0.35525,0.645774 -0.65738,1.111074 -0.3018,0.464072 -0.549,0.890092 -0.549,0.945332 0,0.0491 -0.18459,0.36218 -0.41006,0.6826 -0.22509,0.32043 -0.40968,0.64087 -0.40968,0.71084 0,0.0737 -0.10377,0.24186 -0.23134,0.38059 -0.12734,0.13751 -0.26283,0.35236 -0.30081,0.47635 -0.0853,0.27746 -1.8531,0.28606 -13.13713,0.0614 l -8.17549,-0.15962 0.21362,0.37077 c 0.11719,0.20379 1.43461,1.14299 2.92762,2.08783 6.81388,4.3128 10.2949,6.67245 10.38956,7.04261 0.0806,0.31429 -0.19141,0.80782 -2.00836,3.64161 -0.92717,1.44537 -0.50479,1.2886 -4.43743,1.65004 -1.12714,0.0982 -2.35919,0.26887 -2.73743,0.36586 -0.37819,0.0982 -1.24526,0.17801 -1.92694,0.17801 -0.79631,0 -1.2391,0.0737 -1.2391,0.19643 0,0.20995 1.50096,1.95979 3.76325,4.38659 1.17891,1.26466 1.35678,1.53034 1.19355,1.78398 -0.10621,0.16329 -0.31325,0.55737 -0.46146,0.87536 -0.1477,0.31674 -0.3296,0.57702 -0.40347,0.57702 -0.0745,0 -0.17701,0.14608 -0.22913,0.3241 -0.0525,0.17803 -0.23268,0.48372 -0.40126,0.68015 -0.16846,0.19645 -0.49943,0.67033 -0.73528,1.05338 -0.23622,0.38305 -0.61441,0.97602 -0.8405,1.31892 -0.2261,0.34253 -0.59501,0.90114 -0.82011,1.24404 -0.22474,0.34252 -0.57512,0.87043 -0.77813,1.1749 -0.20351,0.30447 -0.51493,0.78451 -0.69279,1.06688 -1.11518,1.77232 -1.24793,1.88256 -2.134,1.77562 -2.0057,-0.24307 -6.08132,-0.4174 -6.22729,-0.2664 -0.1,0.0982 -0.0841,0.45425 0.0415,0.96252 0.10864,0.44074 0.19778,1.15526 0.19778,1.58729 0,0.43216 0.0818,1.01041 0.18274,1.28579 0.17518,0.48002 0.39945,1.9076 0.56669,3.61042 0.0439,0.43952 0.19863,1.45693 0.34511,2.26046 0.31361,1.71817 0.37954,1.57293 -1.42266,3.12769 -2.52022,2.17501 -4.69005,4.21927 -5.21604,4.91438 -0.29859,0.3941 -0.8577,0.87292 -1.24262,1.06198 -0.38528,0.1903 -1.10065,0.70592 -1.58989,1.14667 -0.48879,0.43952 -1.62703,1.44979 -2.52906,2.24412 -4.19234,3.69147 -4.17199,3.66704 -3.65309,4.35025 0.0745,0.0983 0.66838,1.00794 1.32003,2.02266 1.41251,2.19806 1.75755,2.72634 2.3959,3.66456 0.26637,0.39041 0.81927,1.2379 1.22847,1.88219 0.4097,0.64455 0.8587,1.27424 0.99799,1.39934 0.1388,0.12522 0.25257,0.3278 0.25257,0.45056 0,0.12277 0.11231,0.32412 0.24903,0.4469 0.13721,0.12278 0.85687,1.14298 1.5992,2.26522 0.74223,1.12336 1.54695,2.33142 1.78807,2.68573 0.24073,0.35481 0.74455,1.16386 1.11958,1.79971 0.37513,0.63594 0.89983,1.47507 1.16656,1.86633 0.26636,0.39042 0.66617,0.99077 0.88824,1.33281 0.22206,0.34252 0.58878,0.90236 0.81487,1.24403 0.22657,0.34253 0.59549,0.90237 0.82011,1.24403 0.22474,0.34252 0.59367,0.90236 0.82012,1.24405 0.22608,0.34253 0.59635,0.92199 0.82231,1.2887 0.55339,0.89624 1.47222,0.72681 4.21802,-0.77713 0.15662,-0.086 0.42069,-0.15597 0.58659,-0.15597 0.16589,0 0.47464,-0.20012 0.68655,-0.44443 0.21413,-0.24676 0.57292,-0.44688 0.8078,-0.44811 0.23217,-0.002 0.60648,-0.16087 0.83207,-0.35113 0.22561,-0.19151 0.57157,-0.34988 0.76934,-0.35112 0.19775,-0.002 0.40211,-0.0737 0.45437,-0.17065 0.12391,-0.2173 1.06085,-0.72189 1.34038,-0.72189 0.11965,0 0.60648,-0.26272 1.08161,-0.58316 0.47561,-0.32042 1.08563,-0.69733 1.35632,-0.83607 0.27075,-0.13994 0.60257,-0.34989 0.73783,-0.46898 0.13539,-0.12278 0.76262,-0.51195 1.39392,-0.87288 0.63174,-0.36095 1.34392,-0.80785 1.58324,-0.992 0.23929,-0.18415 0.50345,-0.33516 0.58658,-0.33516 0.0831,0 0.32424,-0.20011 0.53617,-0.44442 0.21192,-0.24432 0.47159,-0.44443 0.57731,-0.44443 0.10499,0 0.32558,-0.15956 0.48879,-0.35605 0.16322,-0.19519 0.3782,-0.3548 0.47781,-0.3548 0.10011,0 0.3804,-0.20012 0.6237,-0.44443 0.24282,-0.24431 0.54142,-0.44443 0.66313,-0.44443 0.12086,0 0.47108,-0.27992 0.77725,-0.62122 0.30569,-0.34251 0.63969,-0.62244 0.74138,-0.62244 0.10139,0 0.35879,-0.20011 0.57023,-0.44443 0.21191,-0.24433 0.46499,-0.44687 0.5618,-0.45057 0.0965,-0.003 0.80375,-0.64208 1.5704,-1.42008 0.76665,-0.77714 1.47311,-1.41468 1.57044,-1.41567 0.0965,-0.001 0.34951,-0.20256 0.56144,-0.44689 0.21193,-0.24432 0.47818,-0.44443 0.59146,-0.44443 0.11354,0 0.25221,-0.15596 0.30788,-0.34621 0.0562,-0.1903 0.24513,-0.39532 0.42117,-0.45546 0.17567,-0.0613 0.31935,-0.22713 0.31935,-0.37079 0,-0.1424 0.12917,-0.30815 0.28714,-0.36831 0.37562,-0.14239 1.68103,-1.49817 1.68103,-1.74604 0,-0.25537 1.3532,-1.68846 1.59384,-1.68846 0.10377,0 0.23366,-0.15596 0.28932,-0.34621 0.0561,-0.1903 0.25039,-0.39777 0.43217,-0.46038 0.18227,-0.0613 0.46279,-0.34867 0.62368,-0.63474 0.16103,-0.28728 0.6724,-0.9527 1.13642,-1.47985 0.46451,-0.52671 0.8449,-1.02515 0.84588,-1.10617 3.8e-4,-0.086 0.33083,-0.54756 0.73343,-1.03742 0.40262,-0.48863 0.73394,-0.94411 0.73613,-1.01163 0.002,-0.0614 0.29994,-0.49231 0.66045,-0.9441 0.36098,-0.45181 0.65654,-0.87658 0.65689,-0.94409 3.8e-4,-0.0738 0.20351,-0.36342 0.45083,-0.65683 0.52554,-0.62368 1.35852,-2.34628 1.355,-2.80176 -9.9e-4,-0.1731 0.18178,-0.63104 0.40738,-1.01775 0.2256,-0.38674 0.41005,-0.76978 0.41005,-0.8508 0,-0.086 0.25831,-0.41743 0.57377,-0.7489 0.31594,-0.33149 0.57425,-0.69121 0.57425,-0.80048 0,-0.11049 0.14112,-0.36217 0.31363,-0.56351 0.17249,-0.20012 0.46144,-0.71575 0.64187,-1.14423 0.18044,-0.42846 0.52067,-0.9748 0.7565,-1.21543 0.41142,-0.41741 0.91169,-1.31732 0.91169,-1.6391 0,-0.086 0.18459,-0.47021 0.41006,-0.85817 0.2256,-0.38672 0.41006,-0.82501 0.41006,-0.97356 0,-0.14857 0.0733,-0.2701 0.16371,-0.2701 0.0903,0 0.16408,-0.15959 0.16408,-0.35726 0,-0.19644 0.19423,-0.77591 0.43131,-1.2881 0.23755,-0.51319 0.49587,-1.07057 0.57413,-1.24073 0.0782,-0.16942 0.14245,-0.46407 0.14245,-0.65559 0,-0.19029 0.0745,-0.39655 0.16421,-0.45794 0.0903,-0.0614 0.16368,-0.25535 0.16368,-0.43338 0,-0.17801 0.11108,-0.42233 0.24636,-0.54509 0.13477,-0.12278 0.246,-0.44566 0.246,-0.72189 0,-0.27501 0.0733,-0.55002 0.16372,-0.61017 0.0903,-0.0614 0.16408,-0.42112 0.16408,-0.79924 0,-0.37936 0.0733,-0.73908 0.16419,-0.79924 0.0903,-0.0614 0.16369,-0.29588 0.16369,-0.52177 0,-0.22713 0.11108,-0.51195 0.24636,-0.6335 0.13477,-0.12278 0.246,-0.44688 0.246,-0.72188 0,-0.27624 0.0733,-0.55002 0.16371,-0.6114 0.0903,-0.0614 0.16421,-0.34007 0.16421,-0.62245 0,-0.28115 0.0733,-0.56106 0.16407,-0.62122 0.0903,-0.0614 0.16371,-0.41497 0.16371,-0.78818 0,-0.38674 0.1062,-0.77346 0.24635,-0.89991 0.14734,-0.13259 0.24599,-0.52178 0.24599,-0.96988 0,-0.83975 0.2831,-2.6661 0.49771,-3.20678 0.077,-0.1952 0.17701,-0.71575 0.22073,-1.15527 0.0439,-0.43952 0.18679,-1.43923 0.31764,-2.22116 0.13087,-0.78204 0.27821,-2.38173 0.32741,-3.55481 0.0501,-1.17246 0.17518,-2.55523 0.27956,-3.07159 0.41274,-2.03799 -0.24378,-15.21556 -0.81572,-16.37378 -0.094,-0.190295 -0.17163,-0.832383 -0.17163,-1.425365 0,-0.592982 -0.0647,-1.077926 -0.14517,-1.077926 -0.17126,0 -0.33839,-0.77468 -0.45877,-2.129574 -0.0476,-0.53528 -0.18971,-1.133172 -0.31543,-1.327886 -0.1255,-0.195206 -0.22866,-0.611397 -0.22866,-0.925689 0,-0.314292 -0.0732,-0.621219 -0.16371,-0.681375 -0.0903,-0.06139 -0.16407,-0.344985 -0.16407,-0.632269 0,-0.287284 -0.0745,-0.523003 -0.16421,-0.523003 -0.0902,0 -0.16638,-0.299559 -0.16895,-0.666642 -0.004,-0.367084 -0.11354,-0.821336 -0.246,-1.011629 -0.1327,-0.190295 -0.24109,-0.525458 -0.24109,-0.743988 0,-0.219759 -0.0732,-0.44934 -0.16369,-0.510728 -0.0903,-0.06139 -0.16408,-0.340073 -0.16408,-0.622443 0,-0.282373 -0.0733,-0.562289 -0.16408,-0.622447 -0.0903,-0.06139 -0.16373,-0.270095 -0.16373,-0.466529 0,-0.196432 -0.18457,-0.618763 -0.41005,-0.939192 -0.26456,-0.375679 -0.41006,-0.812742 -0.41006,-1.232493 0,-0.357263 -0.0733,-0.649457 -0.16419,-0.649457 -0.0903,0 -0.16372,-0.122776 -0.16372,-0.270095 0,-0.148557 -0.18434,-0.586843 -0.41007,-0.974797 -0.2256,-0.386727 -0.40871,-0.84466 -0.40736,-1.017767 0.004,-0.383044 -0.79497,-2.131908 -1.19172,-2.611328 -0.15748,-0.190293 -0.28664,-0.521775 -0.28664,-0.736621 0,-0.213621 -0.11109,-0.488627 -0.24599,-0.61017 -0.1355,-0.122777 -0.24636,-0.331481 -0.24636,-0.466527 0,-0.357263 -0.22475,-0.29956 -0.60429,0.154688 m -70.18203,10.399916 c -0.10253,0.07366 -0.50918,0.778363 -0.90203,1.570603 -0.39284,0.791866 -0.9909,1.965062 -1.32933,2.606046 -0.3379,0.640863 -0.6149,1.287618 -0.6149,1.437274 0,0.149783 -0.077,0.322887 -0.17065,0.385499 -0.2549,0.170651 -0.97724,1.462198 -0.97724,1.747516 0,0.136281 -0.11109,0.348667 -0.24599,0.470211 -0.13538,0.122775 -0.246,0.360943 -0.246,0.532821 0,0.17188 -0.10986,0.410056 -0.2433,0.53037 -0.24903,0.223443 -1.232466,2.087834 -1.232466,2.335708 0,0.07366 -0.211448,0.48126 -0.470227,0.901135 -0.258318,0.421102 -0.602952,1.084063 -0.766166,1.475083 -0.78301,1.87839 -1.573526,2.91445 -2.315808,3.03476 -0.385763,0.0614 -0.786545,0.22468 -0.890556,0.36095 -0.126105,0.16452 -0.543732,0.248 -1.246166,0.248 -0.581332,0 -1.217843,0.0982 -1.414706,0.20871 -0.197264,0.1105 -0.875051,0.27132 -1.506277,0.34621 -1.698719,0.20258 -3.54121,0.62613 -4.099907,0.94165 -0.27737,0.15714 -0.898858,0.27868 -1.425331,0.27868 -0.51321,9.9e-4 -0.978571,0.086 -1.034238,0.17925 -0.05618,0.0982 -0.595493,0.18048 -1.1988,0.18417 -0.640174,0.003 -1.267848,0.11049 -1.507166,0.26027 -0.225602,0.13995 -0.675946,0.25659 -1.000671,0.26027 -1.476647,0.0123 -2.068539,0.74767 -1.254577,1.55034 0.203005,0.20012 0.575107,0.65437 0.827196,1.00917 0.251737,0.35481 0.565341,0.64578 0.696697,0.64578 0.131343,0 0.239281,0.086 0.239281,0.20011 0,0.1105 0.350365,0.59913 0.77861,1.08529 1.069644,1.21542 2.248581,2.58543 3.320911,3.8588 0.496365,0.58929 1.631466,1.89177 2.5224,2.89468 3.331517,3.7499 3.949082,4.80033 3.258526,5.54002 -0.156613,0.16697 -0.530915,4.04 -0.637489,6.59093 -0.05982,1.43396 -0.150512,2.03664 -0.33974,2.26389 -0.184449,0.22099 -0.29323,0.88395 -0.380028,2.31115 -0.06593,1.10126 -0.203507,2.22693 -0.304337,2.50206 -0.101337,0.27501 -0.183251,1.33477 -0.183251,2.35486 v 1.85445 h 0.49417 c 0.27163,0 0.622471,-0.0737 0.778976,-0.16574 0.659096,-0.38551 1.416037,-0.72189 1.620418,-0.72189 0.120869,0 0.311422,-0.15961 0.42422,-0.35603 0.112312,-0.19521 0.304828,-0.35481 0.42727,-0.35481 0.211448,0 1.0882,-0.37322 1.705349,-0.72557 0.156615,-0.086 0.36721,-0.16329 0.468044,-0.16329 0.101337,0 0.40298,-0.20012 0.671061,-0.44443 0.267591,-0.24431 0.629919,-0.44443 0.804613,-0.44443 0.174697,0 0.445947,-0.0736 0.602578,-0.16452 0.15661,-0.086 0.641024,-0.3413 1.076719,-0.55614 0.435694,-0.21484 0.831223,-0.50091 0.87859,-0.63472 0.04759,-0.13383 0.26405,-0.24432 0.481354,-0.24432 0.216784,0 0.522484,-0.0736 0.678994,-0.17064 0.15661,-0.0982 0.62333,-0.33026 1.03692,-0.52424 0.41408,-0.19397 0.84711,-0.47757 0.96306,-0.62858 0.11598,-0.15101 0.34378,-0.27501 0.50566,-0.27501 0.16199,0 0.50343,-0.1105 0.75907,-0.2566 2.06325,-1.13807 2.27159,-1.14544 4.19416,-0.14732 0.42824,0.22222 0.8914,0.40392 1.03033,0.40392 0.13844,0 0.29322,0.12277 0.34377,0.26027 0.0513,0.14242 0.25124,0.30815 0.44595,0.36709 0.32643,0.0982 1.09625,0.45301 1.78675,0.82009 0.1566,0.086 0.37295,0.15102 0.48135,0.15102 0.10743,0 0.34902,0.14609 0.53531,0.32288 0.18603,0.17678 0.67056,0.46531 1.07623,0.64086 0.40615,0.17434 0.86614,0.38918 1.02276,0.47758 0.15662,0.086 0.39102,0.15961 0.52017,0.15961 0.12954,0 0.45523,0.20011 0.72331,0.44443 0.26759,0.24431 0.60123,0.44443 0.74053,0.44443 0.13977,0 0.29945,0.086 0.35524,0.17802 0.0561,0.0982 0.27261,0.17801 0.48136,0.17801 0.20923,0 0.47243,0.12279 0.58438,0.26642 0.11231,0.14611 0.37733,0.2664 0.58828,0.2664 0.21633,0 0.46098,0.1547 0.55962,0.35481 0.0965,0.19521 0.2726,0.35604 0.39065,0.35604 0.2008,0 0.96122,0.34007 1.6164,0.72311 0.36992,0.21608 1.22628,0.21363 1.35015,-0.003 0.16323,-0.28605 -0.20874,-4.41101 -0.43666,-4.8439 -0.11842,-0.22345 -0.26759,-1.28676 -0.33218,-2.36211 -0.2831,-4.69817 -0.39906,-6.06497 -0.53483,-6.30327 -0.0794,-0.13875 -0.19544,-0.98708 -0.25829,-1.88367 -0.0623,-0.89623 -0.20974,-2.03602 -0.32694,-2.53263 -0.29103,-1.22931 0.0231,-1.73978 3.28773,-5.35845 0.40616,-0.44933 0.85956,-0.97479 1.0086,-1.16754 0.14871,-0.19275 0.44375,-0.51686 0.65556,-0.72066 0.66045,-0.63594 3.48899,-3.99201 3.74556,-4.44454 0.13404,-0.23571 0.3738,-0.47512 0.53262,-0.52914 0.15917,-0.0491 0.28933,-0.16574 0.28933,-0.24677 0,-0.086 0.52066,-0.72803 1.1563,-1.43826 1.42753,-1.59355 1.53724,-2.28586 0.40166,-2.53177 -0.36099,-0.0737 -0.95112,-0.22835 -1.3121,-0.33271 -0.3605,-0.11049 -1.13557,-0.22712 -1.72171,-0.27255 -0.5862,-0.0491 -1.13603,-0.15468 -1.22183,-0.24431 -0.0853,-0.086 -0.65251,-0.16329 -1.25943,-0.16329 -0.74541,0 -1.18024,-0.086 -1.34128,-0.25781 -0.24195,-0.26274 -2.12515,-0.71698 -4.04903,-0.97603 -0.58658,-0.0737 -1.27404,-0.23327 -1.52796,-0.34375 -0.25392,-0.1105 -0.88128,-0.20257 -1.39392,-0.20503 -0.5463,-0.003 -1.06036,-0.1105 -1.24128,-0.25905 -0.16993,-0.13995 -0.637,-0.30693 -1.03792,-0.372 -0.54812,-0.086 -0.77285,-0.22343 -0.90592,-0.54018 -0.0977,-0.23204 -0.23975,-0.42233 -0.31533,-0.42233 -0.0757,0 -0.14014,-0.0982 -0.14332,-0.22221 -0.008,-0.2922 -0.46316,-1.28775 -1.00019,-2.18372 -0.23621,-0.3941 -0.59586,-1.113532 -0.79887,-1.599334 -0.203,-0.484943 -0.42421,-0.922004 -0.49148,-0.971113 -0.0672,-0.0491 -0.45083,-0.768544 -0.85198,-1.599331 -0.40127,-0.831156 -1.00115,-2.018346 -1.33242,-2.638706 -0.33181,-0.619992 -0.60294,-1.23016 -0.60294,-1.355755 0,-0.125228 -0.11355,-0.329024 -0.25172,-0.454249 -0.13831,-0.125229 -0.50698,-0.801692 -0.81877,-1.503939 -0.31191,-0.702246 -0.78923,-1.609889 -1.06036,-2.015401 -0.27127,-0.405141 -0.49332,-0.842204 -0.49332,-0.969885 0,-0.498448 -0.53042,-0.798008 -0.92547,-0.523001"
           stroke="none"
           fill="#04b3ea"
           fill-rule="evenodd"
           style="display:inline;mix-blend-mode:overlay;fill:#ffffff;fill-opacity:1;stroke:#00ff00;stroke-width:0.460519;stroke-opacity:1;enable-background:new" />
      </g>
    </g>
  </g>
</svg>
