<?xml version="1.0" encoding="UTF-8" standalone="no"?>
<svg
   width="181.31606mm"
   height="181.31599mm"
   viewBox="0 0 181.31606 181.31599"
   version="1.1"
   id="svg4631"
   sodipodi:docname="denios-logo.svg"
   inkscape:version="1.2.2 (b0a8486541, 2022-12-01)"
   xmlns:inkscape="http://www.inkscape.org/namespaces/inkscape"
   xmlns:sodipodi="http://sodipodi.sourceforge.net/DTD/sodipodi-0.dtd"
   xmlns="http://www.w3.org/2000/svg"
   xmlns:svg="http://www.w3.org/2000/svg"
   xmlns:rdf="http://www.w3.org/1999/02/22-rdf-syntax-ns#"
   xmlns:cc="http://creativecommons.org/ns#"
   xmlns:dc="http://purl.org/dc/elements/1.1/"
   xmlns:osb="http://www.openswatchbook.org/uri/2009/osb">
  <sodipodi:namedview
     id="namedview17"
     pagecolor="#ffffff"
     bordercolor="#000000"
     borderopacity="0.25"
     inkscape:showpageshadow="2"
     inkscape:pageopacity="0.0"
     inkscape:pagecheckerboard="0"
     inkscape:deskcolor="#d1d1d1"
     inkscape:document-units="mm"
     showgrid="false"
     inkscape:zoom="0.54068293"
     inkscape:cx="447.5821"
     inkscape:cy="386.54818"
     inkscape:window-width="1360"
     inkscape:window-height="745"
     inkscape:window-x="1366"
     inkscape:window-y="2"
     inkscape:window-maximized="1"
     inkscape:current-layer="svg4631" />
  <defs
     id="defs4625">
    <linearGradient
       id="linearGradient8856"
       osb:paint="solid">
      <stop
         style="stop-color:#000000;stop-opacity:1;"
         offset="0"
         id="stop8854" />
    </linearGradient>
  </defs>
  <metadata
     id="metadata4628">
    <rdf:RDF>
      <cc:Work
         rdf:about="">
        <dc:format>image/svg+xml</dc:format>
        <dc:type
           rdf:resource="http://purl.org/dc/dcmitype/StillImage" />
        <dc:title />
      </cc:Work>
    </rdf:RDF>
  </metadata>
  <g
     id="layer3">
    <flowRoot
       xml:space="preserve"
       id="flowRoot10145"
       style="font-style:normal;font-weight:normal;font-size:40px;line-height:1.25;font-family:sans-serif;letter-spacing:0px;word-spacing:0px;fill:#000000;fill-opacity:1;stroke:none"
       transform="matrix(0.3721784,0,0,0.31047784,-6.8135841,-16.980342)"><flowRegion
         id="flowRegion10147"><rect
           id="rect10149"
           width="142.90314"
           height="164.79956"
           x="61.079563"
           y="363.75677" /></flowRegion><flowPara
         id="flowPara10151">ParrotOSpa</flowPara></flowRoot>
  </g>
  <g
     id="g2222"
     transform="matrix(7.3516717,0,0,7.0488353,-408.97233,-333.42157)">
    <ellipse
       style="display:inline;mix-blend-mode:normal;fill:#00ffff;fill-opacity:1;stroke:#000000;stroke-width:0.101611;stroke-miterlimit:4;stroke-dasharray:none;stroke-opacity:1;enable-background:new"
       id="path4518-5-6-4"
       cx="68.153748"
       cy="60.37022"
       rx="12.008774"
       ry="12.380815" />
    <path
       id="path0-2-7"
       d="m 67.203255,48.248958 c -0.0138,0.0166 -0.12861,0.0357 -0.25344,0.0433 -0.12477,0.007 -0.24862,0.0248 -0.2752,0.0379 -0.0266,0.013 -0.0919,0.0274 -0.14493,0.0314 -0.13015,0.009 -0.15169,-0.0237 0.41471,0.64897 0.53205,0.63178 0.56951,0.66017 0.52005,0.39448 -0.016,-0.0857 -0.0292,-0.23318 -0.0295,-0.32802 -2.6e-4,-0.0949 -0.0123,-0.22668 -0.0268,-0.293 -0.0138,-0.0662 -0.0331,-0.21684 -0.0417,-0.33473 -0.016,-0.22119 -0.0769,-0.29611 -0.16315,-0.20045 m 0.38298,-0.009 c -0.0225,0.009 -0.0175,0.0335 0.0181,0.0892 0.0266,0.0414 0.0485,0.0849 0.0485,0.0964 0,0.0111 0.0198,0.0457 0.0442,0.0762 0.0588,0.0736 0.36923,0.6197 0.41973,0.73817 0.022,0.0514 0.0601,0.14189 0.0849,0.20082 0.0248,0.0588 0.0763,0.16131 0.11477,0.22761 0.20114,0.34638 0.52136,0.95417 0.62085,1.17825 0.296,0.66652 0.33391,0.76259 0.33391,0.84581 0,0.0485 0.009,0.0947 0.0211,0.10267 0.0108,0.007 0.0275,0.0509 0.0357,0.0953 0.0108,0.0607 0.0278,0.0808 0.0677,0.0808 0.0291,0 0.0701,0.0166 0.0912,0.037 0.0209,0.0203 0.16183,0.069 0.31307,0.10784 0.15123,0.039 0.3051,0.0945 0.34192,0.12357 0.0368,0.029 0.0785,0.0529 0.0925,0.0529 0.0443,0 0.23351,0.12728 0.41751,0.2807 0.0974,0.0812 0.18445,0.14781 0.19337,0.14781 0.0138,0 0.21135,0.30577 0.30335,0.46968 0.0162,0.0289 0.0946,0.16593 0.17428,0.30432 0.17202,0.29914 0.17057,0.30745 -0.0401,0.23029 -0.6832,-0.25001 -1.11387,-0.26177 -1.51748,-0.0414 -0.19371,0.10562 -0.22543,0.16648 -0.21007,0.40292 0.006,0.0956 0.0211,0.1855 0.0328,0.19945 0.0123,0.0148 0.0215,0.10821 0.0215,0.20933 0,0.10119 0.0123,0.20927 0.0272,0.24033 0.0256,0.0531 0.0546,0.28801 0.0849,0.68741 0.0123,0.16612 0.0671,0.29897 0.17911,0.43716 0.0208,0.0255 0.0851,0.1282 0.14308,0.22805 0.26283,0.45299 0.37912,0.45834 1.32887,0.0609 0.11292,-0.0472 0.27052,-0.10988 0.3502,-0.13911 0.0799,-0.0292 0.16668,-0.0634 0.19325,-0.0757 0.0266,-0.0129 0.1243,-0.0525 0.21735,-0.0893 0.0931,-0.0366 0.25065,-0.099 0.35026,-0.13818 0.0997,-0.0392 0.29528,-0.11765 0.43478,-0.17426 0.13954,-0.0564 0.36224,-0.14669 0.49511,-0.20032 0.13292,-0.0537 0.29592,-0.11969 0.36231,-0.1467 0.0663,-0.027 0.21858,-0.0873 0.33815,-0.13392 0.11954,-0.0466 0.23911,-0.0951 0.26568,-0.10767 0.0266,-0.013 0.12708,-0.054 0.22341,-0.0919 0.0963,-0.0379 0.25391,-0.10027 0.35021,-0.13819 0.0963,-0.0379 0.19689,-0.0797 0.22341,-0.0925 0.0266,-0.013 0.14077,-0.0588 0.25365,-0.10211 0.22092,-0.0847 0.40082,-0.15853 0.66417,-0.27232 0.0266,-0.0111 0.0809,-0.0331 0.12077,-0.0481 0.29345,-0.11024 0.87331,-0.34868 0.99607,-0.4095 0.0563,-0.0279 0.10907,-0.0507 0.11708,-0.0507 0.008,0 0.0489,-0.0166 0.0908,-0.0376 0.0418,-0.0207 0.12753,-0.0585 0.1905,-0.0838 0.18876,-0.0762 0.19202,-0.10137 0.0348,-0.2703 -0.0754,-0.081 -0.13708,-0.15668 -0.13708,-0.16815 0,-0.0111 -0.0272,-0.0561 -0.0603,-0.0988 -0.0332,-0.0429 -0.0605,-0.0881 -0.0605,-0.10045 0,-0.013 -0.0652,-0.10157 -0.14493,-0.19799 -0.0797,-0.0964 -0.14492,-0.19172 -0.14492,-0.21166 0,-0.02 -0.0166,-0.0363 -0.0369,-0.0363 -0.0203,0 -0.0452,-0.0246 -0.0554,-0.0549 -0.0108,-0.0303 -0.0451,-0.0697 -0.0777,-0.0879 -0.0328,-0.0185 -0.0726,-0.0625 -0.0888,-0.099 -0.0463,-0.10414 -0.6363,-0.73023 -0.74354,-0.78882 -0.0531,-0.029 -0.1707,-0.13133 -0.2612,-0.2274 -0.0906,-0.096 -0.17938,-0.18073 -0.19735,-0.18804 -0.018,-0.007 -0.10276,-0.0873 -0.18849,-0.17777 -0.0855,-0.0905 -0.19788,-0.18579 -0.24948,-0.21194 -0.0515,-0.0261 -0.11784,-0.0712 -0.14723,-0.10046 -0.0294,-0.0291 -0.0742,-0.0662 -0.0997,-0.0825 -0.0254,-0.0166 -0.10754,-0.0749 -0.18251,-0.13022 -0.0749,-0.0553 -0.14508,-0.10045 -0.15585,-0.10045 -0.0108,0 -0.0451,-0.0302 -0.0761,-0.067 -0.0311,-0.0368 -0.0695,-0.067 -0.0852,-0.067 -0.0157,0 -0.0603,-0.0331 -0.0994,-0.0736 -0.0823,-0.0855 -0.31508,-0.22191 -0.37743,-0.22133 -0.0236,2.6e-4 -0.0858,-0.0296 -0.13831,-0.0666 -0.0526,-0.0368 -0.11584,-0.067 -0.14031,-0.067 -0.0246,0 -0.0982,-0.03 -0.16352,-0.0668 -0.0654,-0.0368 -0.132,-0.067 -0.14831,-0.067 -0.0162,-5e-5 -0.0682,-0.0242 -0.11538,-0.0537 -0.0472,-0.0294 -0.102,-0.0535 -0.12154,-0.0535 -0.0195,0 -0.0355,-0.013 -0.0355,-0.0268 0,-0.0148 -0.0191,-0.0268 -0.0422,-0.027 -0.0232,-5e-5 -0.0734,-0.0185 -0.11153,-0.0401 -0.038,-0.022 -0.0843,-0.0399 -0.10262,-0.0399 -0.0183,0 -0.0334,-0.0111 -0.0334,-0.0267 0,-0.0148 -0.0422,-0.0268 -0.0937,-0.0268 -0.0537,0 -0.10646,-0.0166 -0.12369,-0.0401 -0.0166,-0.022 -0.0498,-0.0401 -0.074,-0.0401 -0.0241,0 -0.0506,-0.013 -0.0589,-0.0268 -0.008,-0.0148 -0.0408,-0.0268 -0.0725,-0.0268 -0.0315,0 -0.0643,-0.0111 -0.0725,-0.0267 -0.008,-0.0148 -0.0398,-0.0268 -0.0701,-0.0268 -0.0597,0 -0.19794,-0.0681 -0.22062,-0.10876 -0.008,-0.013 -0.0452,-0.0252 -0.0835,-0.0252 -0.0383,0 -0.0763,-0.0111 -0.0845,-0.0266 -0.008,-0.0148 -0.0417,-0.0268 -0.0742,-0.0268 -0.0326,0 -0.0782,-0.0111 -0.10123,-0.0255 -0.0231,-0.0148 -0.0854,-0.0451 -0.13862,-0.0692 -0.0531,-0.0241 -0.11538,-0.0548 -0.13846,-0.0683 -0.0231,-0.013 -0.0903,-0.0246 -0.14954,-0.0246 -0.0592,0 -0.11431,-0.013 -0.12246,-0.0268 -0.008,-0.0148 -0.0565,-0.0267 -0.10708,-0.0267 -0.0526,0 -0.10523,-0.0166 -0.12231,-0.0401 -0.0191,-0.0255 -0.0725,-0.0401 -0.14631,-0.0401 -0.064,0 -0.12307,-0.0111 -0.13138,-0.0268 -0.008,-0.0148 -0.0626,-0.0268 -0.12077,-0.0268 -0.0583,0 -0.11262,-0.013 -0.12077,-0.0268 -0.008,-0.0148 -0.0511,-0.0266 -0.0951,-0.0266 -0.0442,0 -0.0937,-0.0185 -0.11031,-0.0403 -0.0209,-0.0279 -0.0765,-0.0401 -0.18268,-0.0401 -0.0838,0 -0.1593,-0.0111 -0.16752,-0.0266 -0.008,-0.0148 -0.0463,-0.0268 -0.0846,-0.0268 -0.0383,0 -0.0763,-0.013 -0.0845,-0.0268 -0.008,-0.0148 -0.0503,-0.0266 -0.0934,-0.0266 -0.0432,0 -0.0997,-0.0185 -0.12538,-0.0394 -0.0462,-0.0388 -1.78144,-0.0603 -1.86457,-0.0231 m -1.56271,0.19453 c -0.008,0.013 -0.0737,0.0333 -0.14662,0.0433 -0.0731,0.009 -0.13877,0.029 -0.146,0.042 -0.008,0.013 -0.0609,0.0237 -0.11908,0.0237 -0.0583,0 -0.11261,0.013 -0.12077,0.0268 -0.008,0.0148 -0.0782,0.0268 -0.15546,0.0268 -0.0928,0 -0.15031,0.013 -0.1694,0.0387 -0.0159,0.0213 -0.0506,0.0424 -0.0772,0.0468 -0.0495,0.009 0.36303,0.42293 0.63485,0.63762 0.0652,0.0514 0.281,0.23492 0.47946,0.40742 0.37874,0.32939 0.40285,0.34102 0.34857,0.16815 -0.0185,-0.0588 -0.0337,-0.15391 -0.034,-0.21107 -1.7e-4,-0.0572 -0.0108,-0.14762 -0.0237,-0.2008 -0.0512,-0.21144 -0.17585,-0.773 -0.19625,-0.88396 -0.0314,-0.17037 -0.21121,-0.27883 -0.27442,-0.16537 m -1.20872,0.32326 c -0.008,0.0148 -0.0408,0.0268 -0.0725,0.0268 -0.0317,0 -0.0632,0.0111 -0.0703,0.0229 -0.008,0.013 -0.0754,0.0302 -0.152,0.0388 -0.0766,0.009 -0.14308,0.0287 -0.1477,0.044 -0.005,0.0148 -0.0286,0.0281 -0.0532,0.0281 -0.0248,0 -0.0515,0.013 -0.0598,0.0268 -0.008,0.0148 -0.0463,0.0266 -0.0846,0.0266 -0.0383,0 -0.0763,0.013 -0.0845,0.0268 -0.008,0.0148 -0.0392,0.0268 -0.0691,0.0268 -0.0299,0 -0.0669,0.0148 -0.0823,0.0313 -0.0361,0.0401 -0.19512,0.10174 -0.2638,0.1023 -0.0291,2.6e-4 -0.0595,0.013 -0.0678,0.0272 -0.008,0.0148 -0.0348,0.0268 -0.0589,0.0268 -0.0242,0 -0.0575,0.0185 -0.074,0.0401 -0.0166,0.022 -0.0614,0.0401 -0.0997,0.0401 -0.0382,0 -0.0695,0.0111 -0.0695,0.0235 0,0.013 -0.0354,0.0387 -0.0785,0.0572 -0.14262,0.0611 -0.47642,0.24459 -0.49036,0.26966 -0.008,0.013 -0.0451,0.0246 -0.0834,0.0246 -0.0382,0 -0.0763,0.013 -0.0845,0.0268 -0.008,0.0148 -0.0388,0.0268 -0.0678,0.027 -0.0291,1.7e-4 -0.10723,0.054 -0.17369,0.11968 -0.0665,0.0657 -0.13277,0.11987 -0.14724,0.12024 -0.0138,3.5e-4 -0.0466,0.0254 -0.0711,0.0555 -0.0246,0.0302 -0.0834,0.0746 -0.13062,0.0988 -0.0472,0.0242 -0.11938,0.072 -0.16055,0.10582 -0.0411,0.034 -0.0854,0.0618 -0.0985,0.0618 -0.0123,0 -0.0492,0.0302 -0.0805,0.067 -0.0311,0.0368 -0.0694,0.067 -0.0849,0.067 -0.0157,0 -0.048,0.0241 -0.072,0.0535 -0.024,0.0294 -0.0537,0.0537 -0.0657,0.0537 -0.0123,0 -0.0577,0.0302 -0.10122,0.067 -0.0435,0.0368 -0.0882,0.067 -0.0991,0.067 -0.0108,0 -0.0883,0.0694 -0.17206,0.15391 -0.21787,0.2204 -0.35027,0.34197 -0.41854,0.38459 -0.0328,0.0205 -0.098,0.0762 -0.14493,0.12395 -0.0469,0.0477 -0.0971,0.0869 -0.11108,0.0871 -0.0138,1.7e-4 -0.0575,0.0374 -0.0966,0.0827 -0.0391,0.0453 -0.11708,0.106 -0.17363,0.13448 -0.11046,0.0561 -1.02044,1.041 -1.02044,1.10456 0,0.0192 -0.028,0.064 -0.0622,0.0995 -0.0342,0.0355 -0.0851,0.11006 -0.11308,0.16537 -0.0282,0.0553 -0.0598,0.10063 -0.0708,0.10063 -0.0108,0 -0.0197,0.0185 -0.0197,0.0396 0,0.0218 -0.0272,0.0594 -0.0605,0.0834 -0.0332,0.0241 -0.0605,0.0596 -0.0605,0.079 0,0.0194 -0.0272,0.0588 -0.0603,0.0879 -0.0946,0.0825 -0.0737,0.11932 0.11477,0.20196 0.0963,0.0422 0.22934,0.10379 0.29579,0.13671 0.0663,0.0329 0.35445,0.15909 0.64008,0.28021 0.28557,0.12117 0.54103,0.22985 0.56754,0.24171 0.0266,0.0111 0.0972,0.0423 0.15703,0.0681 0.0599,0.0255 0.13046,0.0562 0.15702,0.0683 0.0265,0.0111 0.2548,0.10749 0.5072,0.21274 0.25242,0.10526 0.52411,0.21946 0.60378,0.25398 0.0797,0.0346 0.28082,0.11913 0.4469,0.18782 0.166,0.0688 0.32362,0.13503 0.3502,0.14724 0.0266,0.013 0.25482,0.10878 0.50722,0.21448 0.2524,0.10581 0.52409,0.22046 0.60383,0.255 0.0797,0.0344 0.27534,0.11636 0.43477,0.18203 0.15937,0.0657 0.49087,0.20383 0.73664,0.30715 0.6916,0.29044 0.71903,0.30021 0.84158,0.30021 0.16764,0 0.30427,-0.10526 0.43764,-0.33699 0.0586,-0.10193 0.12508,-0.20927 0.14769,-0.23874 0.0706,-0.0916 0.28791,-0.59754 0.28791,-0.67021 0,-0.0216 0.0108,-0.0394 0.0242,-0.0394 0.0138,0 0.0242,-0.0294 0.0242,-0.0653 0,-0.0359 0.0108,-0.0729 0.0242,-0.0819 0.0138,-0.009 0.0241,-0.0385 0.0241,-0.0653 0,-0.0268 0.0163,-0.0636 0.0363,-0.0821 0.02,-0.0185 0.0363,-0.056 0.0363,-0.084 0,-0.0279 0.009,-0.0716 0.0214,-0.0971 0.0123,-0.0255 0.0349,-0.0827 0.0517,-0.12689 0.0168,-0.0442 0.044,-0.11655 0.0606,-0.16057 0.0168,-0.0442 0.0429,-0.111 0.0583,-0.14817 0.0465,-0.11265 -0.008,-0.40473 -0.1083,-0.5781 -0.046,-0.0797 -0.0837,-0.15132 -0.0837,-0.1589 0,-0.007 -0.0634,-0.12487 -0.14092,-0.26056 -0.12908,-0.22609 -0.18966,-0.34311 -0.39783,-0.76895 -0.0395,-0.081 -0.0837,-0.16371 -0.098,-0.18387 -0.0285,-0.0401 -0.0272,-0.0248 -0.05,-0.63293 -0.0154,-0.40705 -0.0274,-0.49995 -0.0989,-0.74981 -0.0168,-0.0588 -0.0446,-0.16131 -0.062,-0.22762 -0.0372,-0.14355 -0.16364,-0.45176 -0.57072,-1.39249 -0.21983,-0.50797 -0.33548,-0.66082 -0.40525,-0.53557 m -7.18097,6.28859 c -0.0415,0.054 -0.0758,0.12449 -0.0763,0.15687 -2.6e-4,0.0324 -0.0123,0.066 -0.0249,0.0751 -0.0138,0.009 -0.0241,0.0344 -0.0241,0.0564 0,0.0218 -0.0272,0.0723 -0.0603,0.11192 -0.0332,0.0398 -0.0605,0.0936 -0.0605,0.11969 0,0.0261 -0.009,0.0684 -0.022,0.094 -0.0669,0.14096 -0.14693,0.35164 -0.14693,0.38645 0,0.022 -0.0217,0.0618 -0.0483,0.0884 -0.0291,0.0292 -0.0483,0.0825 -0.0483,0.13393 0,0.086 -0.0562,0.24011 -0.0982,0.2688 -0.0123,0.009 -0.0226,0.0503 -0.0226,0.0927 0,0.0425 -0.0108,0.0847 -0.0242,0.0938 -0.0138,0.009 -0.0242,0.0622 -0.0242,0.11765 0,0.0557 -0.008,0.10969 -0.0172,0.12024 -0.0326,0.0361 -0.10354,0.27112 -0.10354,0.34306 0,0.0396 -0.0108,0.0795 -0.0241,0.0886 -0.0138,0.009 -0.0242,0.0512 -0.0242,0.0936 0,0.0425 -0.0108,0.0847 -0.0242,0.0938 -0.0138,0.009 -0.0242,0.0557 -0.0242,0.10359 0,0.0477 -0.016,0.11044 -0.0355,0.13892 -0.0203,0.03 -0.0357,0.11173 -0.0363,0.19259 -2.6e-4,0.0773 -0.0123,0.14059 -0.0249,0.14059 -0.0138,0 -0.0242,0.0638 -0.0242,0.14188 0,0.0781 -0.0108,0.15336 -0.0223,0.16742 -0.0123,0.0148 -0.0274,0.1158 -0.0337,0.22624 -0.006,0.11062 -0.0283,0.32137 -0.0489,0.46868 -0.0443,0.31595 -0.0572,1.89966 -0.0158,1.92803 0.0138,0.009 0.0242,0.14466 0.0242,0.31439 0,0.16371 0.0108,0.33473 0.0225,0.38002 0.0123,0.0453 0.0457,0.269 0.074,0.49728 0.0282,0.22827 0.0626,0.45125 0.0765,0.49539 0.0138,0.0442 0.0341,0.12246 0.0452,0.17407 0.0108,0.0516 0.0332,0.14188 0.0491,0.20082 0.0158,0.059 0.0338,0.17574 0.0398,0.25976 0.006,0.0851 0.0262,0.16648 0.0451,0.18406 0.0189,0.0166 0.0341,0.0594 0.0341,0.0934 0,0.0342 0.0108,0.0695 0.0242,0.0786 0.0138,0.009 0.0241,0.0512 0.0241,0.0938 0,0.0425 0.0108,0.0847 0.0242,0.0938 0.0138,0.009 0.0241,0.0512 0.0241,0.0936 0,0.0426 0.0108,0.0842 0.0226,0.0927 0.0405,0.0277 0.098,0.18128 0.0998,0.26627 9.6e-4,0.0455 0.0226,0.11912 0.048,0.16334 0.0255,0.0442 0.0526,0.0984 0.0605,0.12042 0.008,0.0222 0.0242,0.061 0.0365,0.0868 0.0123,0.0255 0.0225,0.0649 0.0225,0.0873 0,0.0224 0.0108,0.0618 0.0225,0.0875 0.0123,0.0255 0.0288,0.0646 0.0365,0.0868 0.008,0.022 0.0349,0.0762 0.0603,0.12043 0.0255,0.0442 0.0471,0.10137 0.048,0.12727 9.5e-4,0.0257 0.0123,0.0468 0.026,0.0468 0.0138,0 0.0241,0.0166 0.0241,0.0379 0,0.0209 0.0182,0.0783 0.0403,0.12727 0.0221,0.049 0.0506,0.11248 0.0632,0.14059 0.0497,0.1121 0.14524,0.29813 0.16516,0.32218 0.0123,0.0148 0.0212,0.0414 0.0212,0.061 0,0.0194 0.034,0.077 0.0754,0.12727 0.0849,0.10341 0.142,0.2141 0.142,0.2752 0,0.0226 0.038,0.0925 0.0846,0.15539 0.0465,0.0629 0.0845,0.12505 0.0845,0.13837 0,0.0129 0.0335,0.0594 0.0745,0.10249 0.0409,0.0433 0.0962,0.13152 0.12292,0.19604 0.0266,0.0646 0.0692,0.14226 0.0946,0.17241 0.0254,0.0303 0.0461,0.0699 0.0461,0.0884 0,0.0185 0.0219,0.0409 0.0483,0.0503 0.0266,0.009 0.0483,0.0281 0.0483,0.0418 0,0.0129 0.0363,0.0701 0.0808,0.12523 0.0445,0.0553 0.0906,0.12061 0.10262,0.14522 0.0123,0.0246 0.0789,0.1121 0.14876,0.19431 0.0697,0.0821 0.12677,0.16352 0.12677,0.18054 0,0.0438 1.01626,1.16986 1.07484,1.19081 0.0264,0.009 0.12246,0.0969 0.21299,0.19424 0.0906,0.0973 0.18301,0.1848 0.20529,0.19424 0.0223,0.009 0.0725,0.0547 0.11154,0.10044 0.0391,0.0457 0.0825,0.0834 0.0966,0.0838 0.0138,2.7e-4 0.0677,0.0426 0.11893,0.0938 0.0512,0.0512 0.10292,0.093 0.11492,0.093 0.0123,0 0.0552,0.0331 0.096,0.0736 0.0409,0.0405 0.12877,0.10711 0.1954,0.14799 0.0666,0.0409 0.13708,0.0921 0.15662,0.11377 0.0195,0.0216 0.0511,0.0394 0.0702,0.0394 0.0189,0 0.0345,0.0111 0.0345,0.0237 0,0.013 0.0358,0.0426 0.0798,0.0657 0.0439,0.0231 0.0999,0.0666 0.12446,0.0968 0.0246,0.0301 0.0648,0.0547 0.0892,0.0547 0.0245,0 0.0446,0.013 0.0446,0.0268 0,0.0148 0.0154,0.0268 0.0325,0.0268 0.0502,0 0.17208,0.0738 0.22094,0.13374 0.0241,0.0296 0.064,0.0538 0.0885,0.0538 0.0245,0 0.0446,0.0129 0.0446,0.0266 0,0.0148 0.0211,0.0268 0.0469,0.0268 0.0258,0 0.0529,0.0111 0.0603,0.024 0.0123,0.0222 0.45803,0.2696 0.59329,0.32926 0.0332,0.0148 0.0911,0.0437 0.12877,0.0644 0.0375,0.0207 0.0838,0.0377 0.10262,0.0377 0.0188,0 0.0343,0.0129 0.0343,0.0268 0,0.0148 0.0166,0.0268 0.0366,0.0268 0.0368,0 0.0568,0.009 0.19665,0.0899 0.0418,0.0242 0.0983,0.044 0.12539,0.044 0.0271,0 0.0558,0.013 0.0641,0.0268 0.0502,0.0901 0.30192,-0.0977 0.30192,-0.2251 0,-0.009 0.0231,-0.045 0.0514,-0.081 0.0283,-0.0361 0.0635,-0.0893 0.0785,-0.11858 0.0154,-0.0292 0.16829,-0.28606 0.34082,-0.57066 0.17252,-0.28468 0.32804,-0.54749 0.34557,-0.58396 0.0177,-0.0364 0.0401,-0.0725 0.0503,-0.0803 0.0108,-0.007 0.0672,-0.0984 0.12708,-0.20147 0.0597,-0.10304 0.12416,-0.20602 0.14323,-0.2287 0.0191,-0.0228 0.0454,-0.0601 0.0588,-0.0831 0.0828,-0.14299 0.60502,-0.98732 0.63661,-1.02922 0.0209,-0.0277 0.13461,-0.21447 0.18458,-0.30318 0.0138,-0.0237 0.0583,-0.0971 0.10031,-0.16334 0.12415,-0.19684 0.11923,-0.20659 -0.31971,-0.61437 -0.106,-0.0984 -0.6,-0.57291 -0.61382,-0.58951 -0.006,-0.007 -0.0665,-0.062 -0.13277,-0.12006 -0.0665,-0.0581 -0.17597,-0.16039 -0.24348,-0.22761 -0.16855,-0.16779 -0.36752,-0.35693 -0.6342,-0.60246 l -0.22549,-0.20767 0.0138,-0.138 c 0.0408,-0.41144 0.0626,-0.58827 0.0981,-0.79416 0.0217,-0.12524 0.0494,-0.31797 0.0617,-0.42843 0.0123,-0.11044 0.0291,-0.2386 0.0375,-0.28468 0.0208,-0.11506 0.0229,-0.11469 -0.41217,-0.0857 -0.21252,0.0148 -0.43417,0.0279 -0.49255,0.0307 l -0.10615,0.006 -0.17925,-0.28115 c -0.0986,-0.15464 -0.18602,-0.29877 -0.19422,-0.32023 -0.008,-0.0214 -0.0362,-0.0658 -0.0619,-0.0988 -0.0257,-0.0329 -0.0591,-0.0844 -0.074,-0.11432 -0.0154,-0.03 -0.11738,-0.20082 -0.22764,-0.37946 -0.2348,-0.38046 -0.23454,-0.34082 -0.005,-0.60563 0.58729,-0.67635 0.58788,-0.67749 0.33651,-0.67749 -0.0937,0 -0.21599,-0.013 -0.27168,-0.0274 -0.0557,-0.0148 -0.22628,-0.0396 -0.37906,-0.0544 -0.54045,-0.0525 -0.49445,-0.0357 -0.61311,-0.22198 -0.0577,-0.0906 -0.10924,-0.17666 -0.11431,-0.1915 -0.005,-0.0148 -0.0509,-0.0951 -0.102,-0.17869 -0.12554,-0.20558 -0.068,-0.29935 0.33435,-0.54588 0.11477,-0.0703 0.32414,-0.2144 0.45068,-0.31011 0.0752,-0.0568 0.14493,-0.10341 0.15508,-0.10341 0.0108,0 0.0355,-0.0166 0.0565,-0.0379 0.038,-0.0377 0.55543,-0.39058 0.57283,-0.39058 0.0223,0 0.21591,-0.16815 0.23337,-0.20276 0.0245,-0.0485 -0.44981,-0.0509 -1.84643,-0.009 -1.23324,0.0366 -1.10046,0.0747 -1.33696,-0.38344 -0.0139,-0.0257 -0.12723,-0.23663 -0.25305,-0.46874 -0.12585,-0.23201 -0.24108,-0.44598 -0.25592,-0.47545 -0.0154,-0.0294 -0.0939,-0.17185 -0.17567,-0.31625 -0.0818,-0.14447 -0.14861,-0.27008 -0.14861,-0.27905 0,-0.009 -0.0154,-0.0353 -0.0326,-0.0586 -0.018,-0.0233 -0.0588,-0.0966 -0.0906,-0.16279 -0.0319,-0.0662 -0.0634,-0.12653 -0.0702,-0.13393 -0.02,-0.0218 -0.14462,-0.23882 -0.14462,-0.25182 0,-0.007 -0.10323,-0.19389 -0.22939,-0.4163 -0.12616,-0.22241 -0.22948,-0.41607 -0.22948,-0.43044 0,-0.0148 -0.0108,-0.0261 -0.0242,-0.0261 -0.0138,0 -0.0242,-0.0129 -0.0242,-0.0287 0,-0.0572 -0.31235,-0.54885 -0.39281,-0.6185 l -0.0825,-0.0714 -0.0755,0.0982 m 20.94386,0.0647 c -0.0421,0.0516 -0.13954,0.21361 -0.43118,0.71636 -0.0298,0.0516 -0.0854,0.14688 -0.12339,0.21181 -0.038,0.0649 -0.0852,0.14633 -0.10523,0.18073 -0.23391,0.40481 -0.32759,0.55948 -0.34343,0.56699 -0.0108,0.006 -0.0188,0.02 -0.0188,0.0335 0,0.0207 -0.48109,0.87528 -0.77879,1.38331 -0.0498,0.0849 -0.0975,0.17241 -0.1063,0.19455 -0.009,0.022 -0.0523,0.0973 -0.0968,0.16741 -0.0445,0.0699 -0.0808,0.13412 -0.0808,0.14244 0,0.007 -0.0272,0.0546 -0.0605,0.10285 -0.0331,0.0483 -0.0603,0.0966 -0.0603,0.10711 0,0.0111 -0.0154,0.0364 -0.034,0.0573 -0.0188,0.0207 -0.0388,0.0531 -0.0443,0.0718 -0.0123,0.0418 -0.27294,0.0431 -1.93487,0.009 l -1.2041,-0.0241 0.0314,0.0559 c 0.0172,0.0307 0.21129,0.17222 0.43118,0.31459 1.00356,0.64983 1.51626,1.00538 1.5302,1.06115 0.0123,0.0474 -0.0282,0.12172 -0.29579,0.54871 -0.13662,0.21778 -0.0743,0.19416 -0.65356,0.24862 -0.16601,0.0148 -0.34746,0.0405 -0.40317,0.0551 -0.0557,0.0148 -0.18341,0.0268 -0.2838,0.0268 -0.11723,0 -0.18251,0.0111 -0.18251,0.0296 0,0.0316 0.22106,0.29529 0.55427,0.66095 0.17363,0.19056 0.19983,0.23059 0.17578,0.26881 -0.0157,0.0246 -0.0461,0.084 -0.068,0.13189 -0.0217,0.0477 -0.0485,0.087 -0.0594,0.087 -0.0108,0 -0.0262,0.022 -0.0337,0.0488 -0.008,0.0268 -0.0343,0.0729 -0.0591,0.10248 -0.0248,0.0296 -0.0735,0.101 -0.10831,0.15872 -0.0348,0.0577 -0.0905,0.14707 -0.12385,0.19873 -0.0332,0.0516 -0.0877,0.13578 -0.12077,0.18745 -0.0331,0.0516 -0.0846,0.13115 -0.11461,0.17703 -0.03,0.0459 -0.0759,0.11821 -0.10201,0.16075 -0.16424,0.26705 -0.1838,0.28366 -0.3143,0.26755 -0.29541,-0.0366 -0.89567,-0.0629 -0.91716,-0.0401 -0.0154,0.0148 -0.0123,0.0684 0.006,0.14503 0.016,0.0664 0.0291,0.17407 0.0291,0.23916 0,0.0651 0.0123,0.15225 0.0269,0.19374 0.0258,0.0723 0.0588,0.28743 0.0834,0.54401 0.006,0.0662 0.0293,0.21952 0.0508,0.3406 0.0462,0.25888 0.0559,0.237 -0.20952,0.47127 -0.37119,0.32772 -0.69076,0.63574 -0.76824,0.74048 -0.044,0.0594 -0.1263,0.13153 -0.18301,0.16001 -0.0568,0.0287 -0.16211,0.10637 -0.23415,0.17278 -0.072,0.0662 -0.23964,0.21845 -0.3725,0.33814 -0.61745,0.55622 -0.61445,0.55254 -0.53803,0.65548 0.0108,0.0148 0.0985,0.15187 0.19441,0.30477 0.20805,0.33119 0.25887,0.41079 0.35288,0.55216 0.0392,0.0588 0.12062,0.18652 0.18093,0.2836 0.0603,0.0971 0.12646,0.192 0.14692,0.21085 0.0205,0.0189 0.0372,0.0494 0.0372,0.0679 0,0.0185 0.0166,0.0488 0.0366,0.0673 0.0201,0.0185 0.12615,0.17221 0.23553,0.34131 0.10939,0.16927 0.22784,0.35129 0.26336,0.40468 0.0354,0.0535 0.10969,0.17536 0.16489,0.27117 0.0552,0.0958 0.13247,0.22226 0.1718,0.28121 0.0392,0.0588 0.0982,0.14929 0.13077,0.20082 0.0328,0.0516 0.0868,0.13597 0.12,0.18745 0.0334,0.0516 0.0877,0.13597 0.12077,0.18745 0.0331,0.0516 0.0874,0.13596 0.12078,0.18744 0.0332,0.0516 0.0878,0.13893 0.12107,0.19418 0.0815,0.13505 0.21685,0.10952 0.62125,-0.11709 0.0231,-0.013 0.062,-0.0235 0.0865,-0.0235 0.0245,0 0.0699,-0.0302 0.10108,-0.067 0.0315,-0.0372 0.0845,-0.0673 0.11892,-0.0675 0.0342,-2.6e-4 0.0894,-0.0242 0.12262,-0.0529 0.0332,-0.0289 0.0841,-0.0527 0.11323,-0.0529 0.0291,-2.6e-4 0.0592,-0.0111 0.0669,-0.0257 0.0183,-0.0327 0.15623,-0.10877 0.1974,-0.10877 0.0177,0 0.0894,-0.0396 0.15931,-0.0879 0.07,-0.0483 0.1599,-0.10508 0.19976,-0.12598 0.0399,-0.0211 0.0888,-0.0527 0.10861,-0.0707 0.02,-0.0185 0.11231,-0.0771 0.2053,-0.13153 0.0931,-0.0544 0.19794,-0.12172 0.23318,-0.14947 0.0352,-0.0277 0.0742,-0.0505 0.0865,-0.0505 0.0123,0 0.0477,-0.0302 0.0789,-0.067 0.0312,-0.0368 0.0694,-0.067 0.0851,-0.067 0.0154,0 0.048,-0.024 0.072,-0.0536 0.024,-0.0294 0.0557,-0.0535 0.0703,-0.0535 0.0154,0 0.056,-0.0302 0.0919,-0.067 0.0357,-0.0368 0.0797,-0.067 0.0977,-0.067 0.0178,0 0.0694,-0.0422 0.11446,-0.0936 0.0451,-0.0516 0.0942,-0.0938 0.10924,-0.0938 0.0154,0 0.0528,-0.0301 0.084,-0.067 0.0312,-0.0368 0.0685,-0.0673 0.0828,-0.0679 0.0139,-4.4e-4 0.11831,-0.0967 0.23128,-0.21397 0.11293,-0.1171 0.21697,-0.21316 0.23131,-0.21331 0.0138,-1.8e-4 0.0515,-0.0305 0.0828,-0.0673 0.0312,-0.0368 0.0705,-0.067 0.0871,-0.067 0.0168,0 0.0371,-0.0235 0.0454,-0.0522 0.008,-0.0287 0.0362,-0.0596 0.062,-0.0686 0.0258,-0.009 0.0471,-0.0342 0.0471,-0.0559 0,-0.0215 0.0191,-0.0464 0.0423,-0.0555 0.0554,-0.0215 0.24759,-0.22574 0.24759,-0.26309 0,-0.0385 0.1993,-0.2544 0.23475,-0.2544 0.0154,0 0.0345,-0.0235 0.0426,-0.0522 0.008,-0.0287 0.0369,-0.0599 0.0637,-0.0694 0.0268,-0.009 0.0682,-0.0525 0.0918,-0.0956 0.0237,-0.0433 0.0991,-0.14355 0.16737,-0.22298 0.0685,-0.0794 0.12446,-0.15446 0.12462,-0.16667 7e-5,-0.0129 0.0488,-0.0825 0.108,-0.15632 0.0592,-0.0736 0.10816,-0.14225 0.10846,-0.15242 2.6e-4,-0.009 0.0442,-0.0742 0.0972,-0.14226 0.0532,-0.0681 0.0968,-0.13208 0.0968,-0.14225 7e-5,-0.0111 0.03,-0.0548 0.0665,-0.099 0.0774,-0.094 0.20008,-0.35353 0.19957,-0.42216 -1.7e-4,-0.0261 0.0268,-0.0951 0.06,-0.15335 0.0332,-0.0583 0.0605,-0.11599 0.0605,-0.1282 0,-0.013 0.038,-0.0629 0.0845,-0.11284 0.0466,-0.0499 0.0846,-0.10415 0.0846,-0.12061 0,-0.0166 0.0208,-0.0546 0.0462,-0.0849 0.0254,-0.0301 0.068,-0.10785 0.0946,-0.17241 0.0266,-0.0646 0.0766,-0.14688 0.11139,-0.18314 0.0606,-0.0629 0.13431,-0.19849 0.13431,-0.24697 0,-0.013 0.0272,-0.0709 0.0605,-0.12931 0.0332,-0.0583 0.0605,-0.12431 0.0605,-0.14669 0,-0.0224 0.0108,-0.0407 0.0242,-0.0407 0.0138,0 0.0242,-0.024 0.0242,-0.0538 0,-0.0296 0.0286,-0.11691 0.0635,-0.19408 0.0349,-0.0773 0.0731,-0.16131 0.0846,-0.18695 0.0108,-0.0255 0.0209,-0.0699 0.0209,-0.0988 0,-0.0287 0.0107,-0.0598 0.0241,-0.069 0.0138,-0.009 0.0242,-0.0385 0.0242,-0.0653 0,-0.0268 0.0163,-0.0636 0.0363,-0.0821 0.0198,-0.0185 0.0363,-0.0671 0.0363,-0.10877 0,-0.0414 0.0108,-0.0829 0.0242,-0.0919 0.0138,-0.009 0.0242,-0.0635 0.0242,-0.12042 0,-0.0572 0.0108,-0.11137 0.0241,-0.12043 0.0138,-0.009 0.0242,-0.0446 0.0242,-0.0786 0,-0.0342 0.0163,-0.0771 0.0363,-0.0954 0.0199,-0.0185 0.0363,-0.0673 0.0363,-0.10878 0,-0.0416 0.0108,-0.0829 0.0242,-0.0921 0.0138,-0.009 0.0241,-0.0512 0.0241,-0.0938 0,-0.0424 0.0108,-0.0845 0.0242,-0.0936 0.0138,-0.009 0.0241,-0.0625 0.0241,-0.11876 0,-0.0583 0.0157,-0.11655 0.0363,-0.1356 0.0217,-0.02 0.0363,-0.0786 0.0363,-0.14614 0,-0.12653 0.0417,-0.40171 0.0732,-0.48318 0.0108,-0.0294 0.0261,-0.10785 0.0325,-0.17407 0.006,-0.0662 0.0275,-0.21686 0.0468,-0.33468 0.0192,-0.11783 0.0409,-0.35887 0.0483,-0.53563 0.008,-0.17666 0.0258,-0.38501 0.0412,-0.46281 0.0608,-0.30708 -0.0358,-2.29263 -0.12016,-2.46715 -0.0138,-0.0287 -0.0252,-0.12542 -0.0252,-0.21477 0,-0.0893 -0.009,-0.16241 -0.0214,-0.16241 -0.0252,0 -0.0498,-0.11673 -0.0675,-0.32088 -0.008,-0.0807 -0.028,-0.17074 -0.0465,-0.20008 -0.0184,-0.0294 -0.0337,-0.0921 -0.0337,-0.13948 0,-0.0474 -0.0108,-0.0936 -0.0242,-0.10267 -0.0138,-0.009 -0.0241,-0.052 -0.0241,-0.0953 0,-0.0433 -0.0108,-0.0788 -0.0242,-0.0788 -0.0138,0 -0.0245,-0.0451 -0.0249,-0.10045 -6.1e-4,-0.0553 -0.0168,-0.12375 -0.0363,-0.15243 -0.0195,-0.0287 -0.0355,-0.0792 -0.0355,-0.1121 0,-0.0331 -0.0108,-0.0677 -0.0242,-0.077 -0.0138,-0.009 -0.0242,-0.0512 -0.0242,-0.0938 0,-0.0426 -0.0108,-0.0847 -0.0241,-0.0938 -0.0138,-0.009 -0.0242,-0.0407 -0.0242,-0.0703 0,-0.0296 -0.0272,-0.0932 -0.0605,-0.14152 -0.0389,-0.0566 -0.0605,-0.12246 -0.0605,-0.18571 0,-0.0538 -0.0108,-0.0978 -0.0241,-0.0978 -0.0139,0 -0.0242,-0.0185 -0.0242,-0.0407 0,-0.0224 -0.0272,-0.0884 -0.0605,-0.14688 -0.0332,-0.0583 -0.0602,-0.12727 -0.06,-0.15335 6e-4,-0.0577 -0.11708,-0.32123 -0.17551,-0.39347 -0.0232,-0.0287 -0.0422,-0.0786 -0.0422,-0.11099 0,-0.0322 -0.0163,-0.0736 -0.0363,-0.0919 -0.02,-0.0185 -0.0363,-0.0499 -0.0363,-0.0703 0,-0.0538 -0.0331,-0.0451 -0.0891,0.0233 m -10.33654,1.56702 c -0.0154,0.0111 -0.0751,0.11728 -0.13292,0.23666 -0.0578,0.11931 -0.146,0.29609 -0.19579,0.39267 -0.0497,0.0966 -0.0906,0.19401 -0.0906,0.21656 0,0.0226 -0.0108,0.0487 -0.0251,0.0581 -0.0375,0.0257 -0.14384,0.22031 -0.14384,0.2633 0,0.0205 -0.0163,0.0525 -0.0363,0.0709 -0.02,0.0185 -0.0363,0.0544 -0.0363,0.0803 0,0.0259 -0.0162,0.0618 -0.0358,0.0799 -0.0366,0.0337 -0.18153,0.31459 -0.18153,0.35194 0,0.0111 -0.0312,0.0725 -0.0692,0.13578 -0.038,0.0634 -0.0888,0.16334 -0.11277,0.22226 -0.11538,0.28303 -0.23175,0.43914 -0.34108,0.45727 -0.0568,0.009 -0.11584,0.0339 -0.13123,0.0544 -0.0186,0.0248 -0.0802,0.0374 -0.18354,0.0374 -0.0855,0 -0.17937,0.0148 -0.20835,0.0315 -0.0291,0.0166 -0.12892,0.0409 -0.22185,0.0522 -0.25019,0.0305 -0.52155,0.0944 -0.60385,0.14189 -0.0408,0.0237 -0.13231,0.042 -0.20992,0.042 -0.0755,1.7e-4 -0.14416,0.013 -0.15231,0.027 -0.008,0.0148 -0.0877,0.0272 -0.17655,0.0277 -0.0943,4.4e-4 -0.18674,0.0166 -0.22199,0.0392 -0.0332,0.0211 -0.0995,0.0387 -0.14738,0.0392 -0.21748,0.002 -0.30465,0.11266 -0.18477,0.2336 0.0298,0.0302 0.0848,0.0986 0.12184,0.15206 0.0371,0.0535 0.0832,0.0973 0.10262,0.0973 0.0194,0 0.0352,0.013 0.0352,0.0302 0,0.0166 0.0517,0.0903 0.11461,0.16352 0.15754,0.18314 0.33119,0.38957 0.48911,0.58144 0.0731,0.0888 0.2403,0.28504 0.37151,0.43616 0.49067,0.56502 0.58162,0.72329 0.47993,0.83475 -0.0231,0.0252 -0.0782,0.60873 -0.0938,0.99309 -0.009,0.21607 -0.0222,0.30688 -0.05,0.34112 -0.0271,0.0333 -0.0432,0.13319 -0.056,0.34824 -0.009,0.16593 -0.03,0.33554 -0.0448,0.377 -0.0154,0.0414 -0.0269,0.20112 -0.0269,0.35482 v 0.27942 h 0.0728 c 0.04,0 0.0917,-0.0111 0.11477,-0.025 0.0971,-0.0581 0.20855,-0.10877 0.23864,-0.10877 0.0179,0 0.0459,-0.0241 0.0625,-0.0537 0.0166,-0.0294 0.0449,-0.0535 0.0629,-0.0535 0.0311,0 0.16028,-0.0562 0.25117,-0.10933 0.0231,-0.013 0.054,-0.0246 0.0689,-0.0246 0.0154,0 0.0594,-0.0302 0.0989,-0.067 0.0394,-0.0368 0.0928,-0.067 0.11846,-0.067 0.0257,0 0.0657,-0.0111 0.0888,-0.0248 0.0231,-0.013 0.0945,-0.0514 0.15858,-0.0838 0.0642,-0.0324 0.12247,-0.0755 0.12939,-0.0956 0.008,-0.0202 0.0389,-0.0368 0.0709,-0.0368 0.032,0 0.0769,-0.0111 0.1,-0.0257 0.0231,-0.0148 0.0918,-0.0498 0.15277,-0.079 0.0609,-0.0292 0.12477,-0.072 0.14185,-0.0947 0.0171,-0.0228 0.0506,-0.0414 0.0745,-0.0414 0.0238,0 0.0742,-0.0166 0.11185,-0.0387 0.30387,-0.17148 0.33457,-0.17259 0.61772,-0.0222 0.0631,0.0335 0.13124,0.0609 0.1517,0.0609 0.0203,0 0.0432,0.0185 0.0506,0.0392 0.008,0.0215 0.0369,0.0464 0.0657,0.0553 0.048,0.0148 0.16147,0.0683 0.26316,0.12357 0.0231,0.013 0.0549,0.0228 0.0709,0.0228 0.0159,0 0.0514,0.022 0.0789,0.0486 0.0274,0.0266 0.0988,0.0701 0.1585,0.0966 0.0598,0.0263 0.12754,0.0586 0.15062,0.072 0.0231,0.013 0.0575,0.024 0.0766,0.024 0.0191,0 0.0671,0.0302 0.10646,0.067 0.0394,0.0368 0.0886,0.067 0.10908,0.067 0.0206,0 0.0442,0.013 0.0523,0.0268 0.008,0.0148 0.0402,0.0268 0.0709,0.0268 0.0308,0 0.0695,0.0185 0.086,0.0401 0.0166,0.022 0.0555,0.0401 0.0866,0.0401 0.0319,0 0.0679,0.0233 0.0825,0.0535 0.0138,0.0294 0.0402,0.0536 0.0575,0.0536 0.0295,0 0.14153,0.0512 0.23805,0.10896 0.0545,0.0326 0.18062,0.0322 0.19885,-4.4e-4 0.024,-0.0431 -0.0308,-0.66464 -0.0643,-0.72986 -0.0174,-0.0337 -0.0394,-0.19389 -0.0489,-0.35592 -0.0417,-0.7079 -0.0588,-0.91385 -0.0788,-0.94975 -0.0123,-0.0209 -0.0288,-0.14873 -0.038,-0.28383 -0.009,-0.13504 -0.0309,-0.30678 -0.0482,-0.3816 -0.0429,-0.18523 0.003,-0.26215 0.48423,-0.8074 0.0598,-0.0677 0.12662,-0.14688 0.14862,-0.17592 0.0218,-0.029 0.0654,-0.0779 0.0966,-0.10859 0.0972,-0.0958 0.51387,-0.6015 0.55167,-0.66968 0.0197,-0.0355 0.0551,-0.0716 0.0785,-0.0797 0.0234,-0.007 0.0426,-0.025 0.0426,-0.0372 0,-0.013 0.0768,-0.10969 0.17031,-0.21671 0.21025,-0.24011 0.22641,-0.34442 0.0592,-0.38148 -0.0532,-0.0111 -0.14,-0.0344 -0.19324,-0.0501 -0.0531,-0.0166 -0.16725,-0.0342 -0.25357,-0.0411 -0.0863,-0.007 -0.16733,-0.0233 -0.17996,-0.0368 -0.0123,-0.013 -0.0961,-0.0246 -0.18549,-0.0246 -0.10985,0 -0.17383,-0.013 -0.19756,-0.0388 -0.0357,-0.0396 -0.31298,-0.10803 -0.59633,-0.14706 -0.0865,-0.0111 -0.18765,-0.0352 -0.22505,-0.0518 -0.0374,-0.0166 -0.12985,-0.0305 -0.2053,-0.0309 -0.0805,-4.4e-4 -0.15617,-0.0166 -0.18281,-0.039 -0.0251,-0.0211 -0.0938,-0.0462 -0.15293,-0.0561 -0.0808,-0.013 -0.11384,-0.0337 -0.13338,-0.0814 -0.0138,-0.035 -0.0352,-0.0636 -0.0465,-0.0636 -0.0108,0 -0.0206,-0.0148 -0.0211,-0.0335 -0.001,-0.044 -0.0682,-0.19403 -0.14739,-0.32903 -0.0348,-0.0594 -0.0877,-0.16778 -0.11769,-0.24098 -0.0298,-0.0731 -0.0625,-0.13893 -0.0723,-0.14633 -0.009,-0.007 -0.0665,-0.1158 -0.12554,-0.24098 -0.0591,-0.12523 -0.14738,-0.30412 -0.19624,-0.39759 -0.0489,-0.0934 -0.0888,-0.18535 -0.0888,-0.20428 0,-0.0189 -0.0168,-0.0496 -0.0371,-0.0684 -0.0203,-0.0189 -0.0746,-0.1208 -0.12062,-0.22661 -0.046,-0.10581 -0.1163,-0.24257 -0.15617,-0.30368 -0.04,-0.061 -0.0726,-0.12689 -0.0726,-0.14613 0,-0.0751 -0.0782,-0.12025 -0.13631,-0.0788"
       stroke="none"
       fill="#04b3ea"
       fill-rule="evenodd"
       style="display:inline;mix-blend-mode:normal;fill:#4d4d4d;fill-opacity:1;stroke:#001900;stroke-width:0.0686032;stroke-opacity:1;enable-background:new" />
  </g>
</svg>
